<?xml version="1.0" standalone="no"?>
<!DOCTYPE svg PUBLIC "-//W3C//DTD SVG 1.1//EN" "http://www.w3.org/Graphics/SVG/1.1/DTD/svg11.dtd" >
<svg>
<metadata>
Created by FontForge 20090622 at Tue Oct 23 08:25:24 2018
 By deploy user
Diwan Software Ltd. 1992-2003 all rights reserved.
</metadata>
<defs>
<font id="GeezaPro" horiz-adv-x="988" >
  <font-face 
    font-family="Geeza Pro"
    font-weight="400"
    font-stretch="normal"
    units-per-em="2048"
    panose-1="2 0 4 0 0 0 0 0 0 0"
    ascent="1638"
    descent="-410"
    bbox="-280 -941 2224 2388"
    underline-thickness="100"
    underline-position="-150"
    unicode-range="U+000D-U+FEFC"
  />
<missing-glyph horiz-adv-x="992" 
d="M142 226v1362h700v-1362h-700zM284 368h416v1079h-416v-1079z" />
    <glyph glyph-name="noonjeemisolatedarabic" unicode="&#xfee7;&#xfe9e;" horiz-adv-x="1534" arabic-form="isolated" 
d="M1525 373q0 -147 -41 -147h-794q-148 0 -148 235q0 41 5 56q-189 -16 -319 -160q-129 -142 -129 -334q0 -349 486 -349q29 0 80 4t126 12q162 18 183 34q-73 -96 -238 -163q-152 -61 -286 -61q-96 0 -174 35.5t-132.5 100t-84 154.5t-29.5 200q0 245 215 556
q-28 16 -61 16q-71 0 -170 -100q50 155 74 186q54 73 182 73q20 0 61 -5.5t85.5 -12.5t85.5 -12.5t61 -5.5q138 0 271 48l-76 -196l-148 -16q-1 -7 -1 -14v-12q0 -30 9 -50.5t31 -32.5t58.5 -17.5t91.5 -5.5h594q17 0 17 26q0 13 -11 44t-26.5 63t-32 56.5t-28.5 24.5
l74 177q53 -22 99 -183q40 -136 40 -224zM628 18l-82 -143l-197 128l86 136zM1408 1141l-73 -134l-193 109l73 136z" />
    <glyph glyph-name="tehjeemisolatedarabic" unicode="&#xfe97;&#xfe9e;" horiz-adv-x="1534" arabic-form="isolated" 
d="M1536 373q0 -147 -40 -147h-806q-148 0 -148 235q0 41 5 56q-189 -16 -319 -160q-129 -142 -129 -334q0 -349 486 -349q29 0 80 4t126 12q162 18 183 34q-73 -96 -238 -163q-150 -61 -286 -61q-96 0 -174 35.5t-132.5 100t-84 154.5t-29.5 200q0 245 215 556
q-28 16 -61 16q-71 0 -170 -100q50 155 74 186q54 73 182 73q20 0 61 -5.5t85.5 -12.5t85.5 -12.5t61 -5.5q138 0 271 48l-76 -196l-148 -16q-1 -7 -1 -14v-12q0 -30 9 -50.5t31 -32.5t58.5 -17.5t91.5 -5.5h606q14 0 14 23q0 15 -10.5 46.5t-26 63.5t-32.5 56.5t-29 24.5
l76 177q53 -24 99 -183q40 -136 40 -224zM628 18l-82 -143l-197 128l86 136zM1512 1138l-71 -120l-177 105l71 115zM1090 1226l174 -103l-71 -116l-176 102z" />
    <glyph glyph-name="tehhahisolatedarabic" unicode="&#xfe97;&#xfea2;" horiz-adv-x="1546" arabic-form="isolated" 
d="M1536 373q0 -147 -40 -147h-806q-148 0 -148 235q0 41 5 56q-189 -16 -319 -160q-129 -142 -129 -334q0 -349 486 -349q29 0 80 4t126 12q162 18 183 34q-73 -96 -238 -163q-150 -61 -286 -61q-96 0 -174 35.5t-132.5 100t-84 154.5t-29.5 200q0 245 215 556
q-28 16 -61 16q-71 0 -170 -100q50 155 74 186q54 73 182 73q20 0 61 -5.5t85.5 -12.5t85.5 -12.5t61 -5.5q138 0 271 48l-76 -196l-148 -16q-1 -7 -1 -14v-12q0 -30 9 -50.5t31 -32.5t58.5 -17.5t91.5 -5.5h606q14 0 14 23q0 15 -10.5 46.5t-26 63.5t-32.5 56.5t-29 24.5
l76 177q53 -24 99 -183q40 -136 40 -224zM1441 1018l-177 105l71 115l177 -100zM1017 1109l73 117l174 -103l-71 -116z" />
    <glyph glyph-name="noonjeeminitialarabic" unicode="&#xfee7;&#xfea0;" horiz-adv-x="1737" arabic-form="initial" 
d="M1707 373q0 -147 -41 -147h-1680v163h805q1 1 1 4q0 8 -18.5 29t-47 46.5t-63.5 51.5t-69 44q-97 52 -183 52q-65 0 -221 -63q64 118 95 152q61 67 161 67q122 0 301 -137l193 -144.5t95 -63.5q39 -19 63 -28t33 -10h444q15 0 15 26q0 15 -11 46.5t-27 63t-32.5 55
t-27.5 23.5l76 177q52 -25 99 -185q40 -135 40 -222zM674 -114l-79 -148l-205 113l84 143zM1585 1141l-73 -134l-193 109l72 136z" />
    <glyph glyph-name="tehhahinitialarabic" unicode="&#xfe97;&#xfea4;" horiz-adv-x="1737" arabic-form="initial" 
d="M1707 373q0 -147 -41 -147h-1680v163h805q1 1 1 4q0 8 -18.5 29t-47 46.5t-63.5 51.5t-69 44q-97 52 -183 52q-65 0 -221 -63q64 118 95 152q61 67 161 67q122 0 301 -137l193 -144.5t95 -63.5q39 -19 63 -28t33 -10h444q15 0 15 26q0 15 -11 46.5t-27 63t-32.5 55
t-27.5 23.5l76 177q52 -25 99 -185q40 -135 40 -222zM1612 1018l-177 105l70 115l177 -100zM1187 1109l74 117l174 -103l-71 -116z" />
    <glyph glyph-name="tehjeeminitialarabic" unicode="&#xfe97;&#xfea0;" horiz-adv-x="1737" arabic-form="initial" 
d="M1707 373q0 -147 -41 -147h-1680v163h805q1 1 1 4q0 8 -18.5 29t-47 46.5t-63.5 51.5t-69 44q-97 52 -183 52q-65 0 -221 -63q64 118 95 152q61 67 161 67q122 0 301 -137l193 -144.5t95 -63.5q39 -19 63 -28t33 -10h444q15 0 15 26q0 15 -11 46.5t-27 63t-32.5 55
t-27.5 23.5l76 177q52 -25 99 -185q40 -135 40 -222zM674 -114l-79 -148l-205 113l84 143zM1612 1018l-177 105l70 115l177 -100zM1187 1109l74 117l174 -103l-71 -116z" />
    <glyph glyph-name="lamjeeminitialarabic" unicode="&#xfedf;&#xfea0;" horiz-adv-x="1505" arabic-form="initial" 
d="M1488 1225l-69 -141v-832l-41 -26h-1392v163h806q-31 81 -164 157q-63 36 -117 53t-100 17q-65 0 -221 -63q32 60 56 97.5t40 54.5q61 67 160 67q123 0 305 -139l193.5 -144t90.5 -62q78 -38 96 -38h160v770l-45 175l151 150l13 -175zM674 -114l-79 -148l-205 113l84 143
z" />
    <glyph glyph-name="lamhahinitialarabic" unicode="&#xfedf;&#xfea4;" horiz-adv-x="1505" arabic-form="initial" 
d="M1488 1225l-69 -141v-832l-41 -26h-1392v163h806q0 11 -18 32t-46.5 47t-64 52t-69.5 44q-97 52 -183 52q-65 0 -221 -63q64 118 95 152q61 67 161 67q149 0 351 -178l74 -60.5t85 -61.5q125 -83 175 -83h160v770l-45 175l151 150l13 -175z" />
    <glyph glyph-name="lamkhahinitialarabic" unicode="&#xfedf;&#xfea8;" horiz-adv-x="1505" arabic-form="initial" 
d="M1488 1225l-69 -141v-832l-41 -26h-1392v163h806q-31 81 -164 157q-63 36 -117 53t-100 17q-65 0 -221 -63q32 60 56 97.5t40 54.5q61 67 160 67q123 0 305 -139l193.5 -144t90.5 -62q78 -38 96 -38h160v770l-45 175l151 150l13 -175zM663 1221l-82 -148l-198 117l80 138
z" />
    <glyph glyph-name="lammeeminitialarabic" unicode="&#xfedf;&#xfee4;" horiz-adv-x="701" arabic-form="initial" 
d="M693 287q0 -80 -62 -115l-179 134q-174 -80 -289 -80h-177v163q72 0 114.5 1t56.5 3q35 5 74.5 16t84.5 31v715l-62 188l153 141q0 -72 1 -112.5t3 -50.5q17 -71 98 -123l-82 -132v-543l249 -192q17 -29 17 -44z" />
    <glyph glyph-name="noonmeemisolatedarabic" unicode="&#xfee7;&#xfee2;" horiz-adv-x="1314" arabic-form="isolated" 
d="M1319 373q0 -147 -39 -147h-580q-16 0 -49.5 1t-70 2.5t-69.5 2.5t-50 1q-332 0 -333 -55l8 -32q18 -67 34 -140.5t28 -143.5t18.5 -131t6.5 -103q0 -92 -67 -208q-14 153 -36 287.5t-52 252.5q-20 81 -31 137t-11 88q0 113 69 152q39 22 175 41q120 18 172 18
q19 0 28 -3l-143 160l-186 -97l2 61q1 29 93 119t123 90q44 0 140 -124l55.5 -71t39.5 -46q25 -26 52 -50t58 -46h485q14 0 14 23q0 16 -10.5 48t-26 63.5t-32.5 55.5t-29 24l76 177q51 -22 98 -183q40 -138 40 -224zM1200 1141l-72 -134l-192 109l71 136z" />
    <glyph glyph-name="behmeemisolatedarabic" unicode="&#xfe91;&#xfee2;" horiz-adv-x="1314" arabic-form="isolated" 
d="M1314 373q0 -147 -41 -147h-573q-16 0 -49.5 1t-70 2.5t-69.5 2.5t-50 1q-332 0 -333 -55l8 -32q18 -67 34 -140.5t28 -143.5t18.5 -131t6.5 -103q0 -92 -67 -208q-14 153 -36 287.5t-52 252.5q-20 81 -31 137t-11 88q0 113 69 152q39 22 175 41q120 18 172 18
q19 0 28 -3l-143 160l-186 -97l2 61q1 29 93 119t123 90q44 0 140 -124l55.5 -71t39.5 -46q25 -26 52 -50t58 -46h481q14 0 14 23q0 16 -10.5 48t-26 63.5t-32.5 55.5t-29 24l75 177q50 -22 97 -183q41 -143 41 -224zM1124 -153l-78 -141l-190 107l73 136z" />
    <glyph glyph-name="tehmeemisolatedarabic" unicode="&#xfe97;&#xfee2;" horiz-adv-x="1314" arabic-form="isolated" 
d="M1314 373q0 -147 -41 -147h-573q-16 0 -49.5 1t-70 2.5t-69.5 2.5t-50 1q-332 0 -333 -55l8 -32q18 -67 34 -140.5t28 -143.5t18.5 -131t6.5 -103q0 -92 -67 -208q-14 153 -36 287.5t-52 252.5q-20 81 -31 137t-11 88q0 113 69 152q39 22 175 41q120 18 172 18
q19 0 28 -3l-143 160l-186 -97l2 61q1 29 93 119t123 90q44 0 140 -124l55.5 -71t39.5 -46q25 -26 52 -50t58 -46h481q14 0 14 23q0 16 -10.5 48t-26 63.5t-32.5 55.5t-29 24l75 177q50 -22 97 -183q41 -143 41 -224zM1221 1018l-177 104l71 116l176 -100zM795 1109l72 117
l177 -104l-70 -115z" />
    <glyph glyph-name="yehmeemisolatedarabic" unicode="&#xfef3;&#xfee2;" horiz-adv-x="1314" arabic-form="isolated" 
d="M1319 373q0 -147 -39 -147h-580q-16 0 -49.5 1t-70 2.5t-69.5 2.5t-50 1q-332 0 -333 -55l8 -32q18 -67 34 -140.5t28 -143.5t18.5 -131t6.5 -103q0 -92 -67 -208q-14 153 -36 287.5t-52 252.5q-20 81 -31 137t-11 88q0 113 69 152q39 22 175 41q120 18 172 18
q19 0 28 -3l-143 160l-186 -97l2 61q1 29 93 119t123 90q44 0 140 -124l55.5 -71t39.5 -46q25 -26 52 -50t58 -46h485q14 0 14 23q0 16 -10.5 48t-26 63.5t-32.5 55.5t-29 24l76 177q51 -22 98 -183q40 -138 40 -224zM791 -194l69 125l172 -108l-68 -121zM1200 -283
l-168 106l65 115l170 -102z" />
    <glyph glyph-name="noonmeeminitialarabic" unicode="&#xfee7;&#xfee4;" horiz-adv-x="1405" arabic-form="initial" 
d="M1378 373q0 -147 -41 -147h-581q-39 -14 -78 -14q-193 0 -333 116q-31 -102 -148 -102h-211v163q300 0 328 21q18 14 53 103q26 65 49 108t46 69t47.5 36.5t54.5 10.5q80 0 165 -129q81 -121 81 -203q0 -5 -0.5 -8.5t-1.5 -7.5h438q5 0 15 10l1 16q1 14 -10 45t-26.5 63
t-32.5 56t-28 24l74 177q52 -23 98 -185q41 -144 41 -222zM706 410q0 27 -14.5 58.5t-36 58.5t-48 45t-50.5 18q-16 0 -39 -14t-44.5 -33.5t-36.5 -41t-15 -37.5q0 -8 12.5 -18t33 -20.5t45 -21t48.5 -18t44.5 -12.5t32.5 -5q68 0 68 41zM1252 1141l-71 -134l-193 109
l72 136z" />
    <glyph glyph-name="behmeeminitialarabic" unicode="&#xfe91;&#xfee4;" horiz-adv-x="1385" arabic-form="initial" 
d="M1378 373q0 -147 -41 -147h-581q-39 -14 -78 -14q-193 0 -333 116q-31 -102 -148 -102h-211v163q300 0 328 21q18 14 53 103q26 65 49 108t46 69t47.5 36.5t54.5 10.5q80 0 165 -129q81 -121 81 -203q0 -5 -0.5 -8.5t-1.5 -7.5h438q5 0 15 10l1 16q1 14 -10 45t-26.5 63
t-32.5 56t-28 24l74 177q52 -23 98 -185q41 -144 41 -222zM706 410q0 27 -14.5 58.5t-36 58.5t-48 45t-50.5 18q-16 0 -39 -14t-44.5 -33.5t-36.5 -41t-15 -37.5q0 -8 12.5 -18t33 -20.5t45 -21t48.5 -18t44.5 -12.5t32.5 -5q68 0 68 41zM1248 -153l-77 -141l-190 107
l72 136z" />
    <glyph glyph-name="yehmeeminitialarabic" unicode="&#xfef3;&#xfee4;" horiz-adv-x="1385" arabic-form="initial" 
d="M1378 373q0 -147 -41 -147h-581q-39 -14 -78 -14q-193 0 -333 116q-31 -102 -148 -102h-211v163q300 0 328 21q18 14 53 103q26 65 49 108t46 69t47.5 36.5t54.5 10.5q80 0 165 -129q81 -121 81 -203q0 -5 -0.5 -8.5t-1.5 -7.5h438q5 0 15 10l1 16q1 14 -10 45t-26.5 63
t-32.5 56t-28 24l74 177q52 -23 98 -185q41 -144 41 -222zM706 410q0 27 -14.5 58.5t-36 58.5t-48 45t-50.5 18q-16 0 -39 -14t-44.5 -33.5t-36.5 -41t-15 -37.5q0 -8 12.5 -18t33 -20.5t45 -21t48.5 -18t44.5 -12.5t32.5 -5q68 0 68 41zM851 -194l70 125l171 -107l-66 -122
zM1262 -283l-170 107l63 114l173 -102z" />
    <glyph glyph-name="meemmeeminitialarabic" unicode="&#xfee3;&#xfee4;" horiz-adv-x="1629" arabic-form="initial" 
d="M1640 351q0 -139 -138 -139q-63 0 -179 35q-63 20 -100.5 40.5t-48.5 40.5q-31 -102 -148 -102h-268q-31 -14 -82 -14q-189 0 -331 116q-31 -102 -148 -102h-211v163q300 0 328 21q17 13 53 103q25 63 48 106t46 69.5t48.5 37.5t55.5 11q76 0 162 -128q83 -121 82 -204
v-8q0 -4 -1 -8h125q182 0 209 21q17 14 51 103q25 64 48 107t46.5 69t49 37t56.5 11q95 0 175 -149q73 -133 72 -237zM1534 410q0 25 -13.5 56t-35 58.5t-48 46.5t-52.5 19q-15 0 -38.5 -14t-45 -33.5t-37.5 -41t-16 -37.5q0 -7 13 -17t33.5 -21t45.5 -21t49 -18t44.5 -13
t31.5 -5q69 0 69 41zM706 410q0 27 -14.5 58.5t-36 58.5t-48 45t-50.5 18q-16 0 -39 -14t-44.5 -33.5t-36.5 -41t-15 -37.5q0 -8 12.5 -18t33 -20.5t45 -21t48.5 -18t44.5 -12.5t32.5 -5q68 0 68 41z" />
    <glyph glyph-name="meemmeemisolatedarabic" unicode="&#xfee3;&#xfee2;" horiz-adv-x="1575" arabic-form="isolated" 
d="M1578 349q0 -137 -138 -137q-64 0 -178 35q-126 40 -149 81q-34 -102 -209 -102h-204q-16 0 -49.5 1t-70 2.5t-69.5 2.5t-50 1q-332 0 -333 -55l10 -36l5.5 -22.5l9.5 -40l9.5 -41.5t5.5 -26q55 -236 55 -384q0 -92 -67 -208q-14 153 -36 287.5t-52 252.5q-20 81 -31 137
t-11 88q0 113 69 152q39 22 175 41q120 18 172 18q19 0 28 -3l-143 160l-186 -97l2 61q1 29 93 119t123 90q44 0 140 -124l55.5 -71t39.5 -46q25 -26 52 -50t58 -46h186q76 0 125 5.5t62 14.5q17 13 53 102q25 63 48 106t46.5 70t49.5 38.5t56 11.5q95 0 176 -150
q72 -130 72 -238zM1471 410q0 27 -14.5 58.5t-36.5 58.5t-48.5 45t-50.5 18q-15 0 -37.5 -14t-44 -33.5t-37 -41.5t-15.5 -37q0 -8 12.5 -18t33 -20.5t45 -21t48.5 -18t44.5 -12.5t32.5 -5q68 0 68 41z" />
    <glyph glyph-name="noonnoonfinalarabic" unicode="&#xfee8;&#xfee6;" horiz-adv-x="1364" arabic-form="final" 
d="M1503 226q-182 -3 -195 -3q-128 0 -143 85q-18 100 -41 173.5t-55 123.5q-1 -8 -6.5 -23t-16.5 -38q-48 -100 -153 -111q8 -38 8 -75q0 -43 -47 -139q-22 -45 -42.5 -76t-37.5 -49q-40 -41 -89 -73t-106 -57q-117 -52 -229 -52q-73 0 -136.5 28.5t-110 77.5t-73 114.5
t-26.5 138.5q0 49 13 105t34.5 108.5t50 97.5t59.5 73q-28 -33 -47 -137q-16 -89 -16 -151q0 -280 240 -280q125 0 282 68q183 80 183 188q-1 28 -9 58.5t-28 62.5l-66 111l65 158l24 -33.5t34 -45t37 -39.5t33 -17t38 10t46.5 25t39 32.5t16.5 32.5q0 23 -13 39l53 156
q0 -4 14 -32q27 -53 55.5 -157t56.5 -262q9 -48 135 -53h169v-163zM1142 1211l-73 -134l-193 109l73 137zM511 962l-77 -138l-189 103l75 137z" />
    <glyph glyph-name="yehnoonfinalarabic" unicode="&#xfef4;&#xfee6;" horiz-adv-x="1364" arabic-form="final" 
d="M1503 226q-182 -3 -195 -3q-128 0 -143 85q-18 100 -41 173.5t-55 123.5q-1 -8 -6.5 -23t-16.5 -38q-48 -100 -153 -111q8 -38 8 -75q0 -43 -47 -139q-22 -45 -42.5 -76t-37.5 -49q-40 -41 -89 -73t-106 -57q-117 -52 -229 -52q-73 0 -136.5 28.5t-110 77.5t-73 114.5
t-26.5 138.5q0 49 13 105t34.5 108.5t50 97.5t59.5 73q-28 -33 -47 -137q-16 -89 -16 -151q0 -280 240 -280q125 0 282 68q183 80 183 188q-1 28 -9 58.5t-28 62.5l-66 111l65 158l24 -33.5t34 -45t37 -39.5t33 -17t38 10t46.5 25t39 32.5t16.5 32.5q0 23 -13 39l53 156
q0 -4 14 -32q27 -53 55.5 -157t56.5 -262q9 -48 135 -53h169v-163zM511 962l-77 -138l-189 103l75 137zM1157 -300l-169 112l84 117l161 -104zM745 -198l76 122l167 -112l-83 -117z" />
    <glyph glyph-name="behnoonfinalarabic" unicode="&#xfe92;&#xfee6;" horiz-adv-x="1364" arabic-form="final" 
d="M1503 226q-182 -3 -195 -3q-128 0 -143 85q-18 100 -41 173.5t-55 123.5q-1 -8 -6.5 -23t-16.5 -38q-48 -100 -153 -111q8 -38 8 -75q0 -43 -47 -139q-22 -45 -42.5 -76t-37.5 -49q-40 -41 -89 -73t-106 -57q-117 -52 -229 -52q-73 0 -136.5 28.5t-110 77.5t-73 114.5
t-26.5 138.5q0 49 13 105t34.5 108.5t50 97.5t59.5 73q-28 -33 -47 -137q-16 -89 -16 -151q0 -280 240 -280q125 0 282 68q183 80 183 188q-1 28 -9 58.5t-28 62.5l-66 111l65 158l24 -33.5t34 -45t37 -39.5t33 -17t38 10t46.5 25t39 32.5t16.5 32.5q0 23 -13 39l53 156
q0 -4 14 -32q27 -53 55.5 -157t56.5 -262q9 -48 135 -53h169v-163zM1153 -157l-74 -143l-193 113l74 143zM511 962l-77 -138l-189 103l75 137z" />
    <glyph glyph-name="tehnoonfinalarabic" unicode="&#xfe98;&#xfee6;" horiz-adv-x="1364" arabic-form="final" 
d="M1503 226q-182 -3 -195 -3q-128 0 -143 85q-18 100 -41 173.5t-55 123.5q-1 -8 -6.5 -23t-16.5 -38q-48 -100 -153 -111q8 -38 8 -75q0 -43 -47 -139q-22 -45 -42.5 -76t-37.5 -49q-40 -41 -89 -73t-106 -57q-117 -52 -229 -52q-73 0 -136.5 28.5t-110 77.5t-73 114.5
t-26.5 138.5q0 49 13 105t34.5 108.5t50 97.5t59.5 73q-28 -33 -47 -137q-16 -89 -16 -151q0 -280 240 -280q125 0 282 68q183 80 183 188q-1 28 -9 58.5t-28 62.5l-66 111l65 158l24 -33.5t34 -45t37 -39.5t33 -17t38 10t46.5 25t39 32.5t16.5 32.5q0 23 -13 39l53 156
q0 -4 14 -32q27 -53 55.5 -157t56.5 -262q9 -48 135 -53h169v-163zM511 962l-77 -138l-189 103l75 137zM756 1190l73 119l175 -103l-71 -118zM1181 1102l-177 104l70 117l176 -101z" />
    <glyph glyph-name="tehmeeminitialarabic" unicode="&#xfe97;&#xfee4;" horiz-adv-x="1405" arabic-form="initial" 
d="M1378 373q0 -147 -41 -147h-581q-39 -14 -78 -14q-193 0 -333 116q-31 -102 -148 -102h-211v163q300 0 328 21q18 14 53 103q26 65 49 108t46 69t47.5 36.5t54.5 10.5q80 0 165 -129q81 -121 81 -203q0 -5 -0.5 -8.5t-1.5 -7.5h438q5 0 15 10l1 16q1 14 -10 45t-26.5 63
t-32.5 56t-28 24l74 177q52 -23 98 -185q41 -144 41 -222zM706 410q0 27 -14.5 58.5t-36 58.5t-48 45t-50.5 18q-16 0 -39 -14t-44.5 -33.5t-36.5 -41t-15 -37.5q0 -8 12.5 -18t33 -20.5t45 -21t48.5 -18t44.5 -12.5t32.5 -5q68 0 68 41zM1284 1021l-179 105l71 117
l180 -102zM858 1112l73 117l174 -103l-70 -116z" />
    <glyph glyph-name="lamalefhamzaaboveisolatedarabic" unicode="&#xfedf;&#xfe84;" arabic-form="isolated" 
d="M947 1238l-68 -138l-39 9q-30 -238 -150 -454q61 -144 61 -275q0 -165 -103 -169l-353 -15l11 171q173 104 275 252l6 4q-5 5 -9.5 11.5l-9.5 13.5q-127 182 -243 261l-48 -59q-152 141 -152 255q0 23 5.5 43.5t16 36t24.5 24.5t30 9q87 0 248 -200q54 -66 103 -137
t96 -148q101 216 101 429q0 108 -23 203l110 113l38 -154zM336 1450l-25 -80q-100 -30 -149 -61q-19 -12 -49.5 -38.5t-73.5 -67.5q-5 5 -5 11q0 8 4 21.5t10 27t12.5 25.5t12.5 17q-73 46 -73 95q0 41 19.5 78t51 65t72 44.5t82.5 16.5q27 0 48 -9l-29 -76q-10 8 -55 8
q-26 0 -50.5 -8.5t-44 -22t-31 -31.5t-11.5 -36q0 -32 46 -32h52zM665 421q0 54 -39 129q-60 -90 -163 -181l196 13q6 20 6 39zM626 551v-1l1 1v1z" />
    <glyph glyph-name="lamalefmaddaabovefinalarabic" unicode="&#xfee0;&#xfe82;" horiz-adv-x="1098" arabic-form="final" 
d="M1237 226h-208q-99 0 -146 95q-1 3 -14.5 47l-39.5 131q-25 80 -27 101q-5 -31 -25 -80q-20 -50 -58 -121q-85 -158 -121 -194q-119 -122 -464 -122q-125 0 -175 22q320 49 563 220q14 67 14 117q0 112 -62 195q-126 171 -179 206l-54 -65q-150 149 -150 258q0 18 6 37.5
t16 35t23 26t27 10.5q80 0 228 -168q124 -140 181 -247q38 -72 38 -326q32 37 53.5 66.5t32.5 51.5q29 57 42 144q16 107 23.5 234.5t7.5 278.5q0 42 -1.5 70.5t-5.5 44.5l132 108l-1 -79q-1 -38 -1 -75v-73q0 -440 39 -700q14 -89 191 -89q8 0 24 0.5l33.5 1l33.5 1t24 0.5
v-163zM438 1493q-29 -110 -52 -143q-44 -62 -134 -62q-7 0 -19.5 1.5t-26.5 3.5t-26.5 3.5t-18.5 1.5q-52 0 -90 -25l-23.5 -18l-50.5 -40q37 111 53 138q42 69 118 69q11 0 30 -3.5l39 -7.5l38.5 -7.5t27.5 -3.5q54 0 83 25q12 9 52 68zM803 608q-1 -1 -1 -6q1 2 1 6z" />
    <glyph glyph-name="lamalefisolatedarabic" unicode="&#xfedf;&#xfe8e;" arabic-form="isolated" 
d="M947 1238l-68 -138l-39 9q-30 -238 -150 -454q61 -144 61 -275q0 -165 -103 -169l-353 -15l11 171q173 104 275 252l6 4q-5 5 -9.5 11.5l-9.5 13.5q-127 182 -243 261l-48 -59q-152 141 -152 255q0 23 5.5 43.5t16 36t24.5 24.5t30 9q87 0 248 -200q54 -66 103 -137
t96 -148q101 216 101 429q0 108 -23 203l110 113l38 -154zM665 421q0 54 -39 129q-60 -90 -163 -181l196 13q6 20 6 39z" />
    <glyph glyph-name="lamaleffinalarabic" unicode="&#xfee0;&#xfe8e;" horiz-adv-x="1098" arabic-form="final" 
d="M1237 226h-208q-99 0 -146 95q-1 3 -14.5 47l-39.5 131q-25 80 -25 111q-7 -41 -27 -90q-20 -50 -58 -121q-85 -158 -121 -194q-119 -122 -464 -122q-125 0 -175 22q320 49 563 220q14 67 14 117q0 112 -62 195q-126 171 -179 206l-54 -65q-150 149 -150 258q0 18 6 37.5
t16 35t23 26t27 10.5q80 0 228 -168q124 -140 181 -247q38 -72 38 -326q32 37 53.5 66.5t32.5 51.5q29 57 42 144q16 107 23.5 234.5t7.5 278.5q0 42 -1.5 70.5t-5.5 44.5l130 108v-227q0 -440 39 -700q17 -86 191 -86h115v-163z" />
    <glyph glyph-name="lamalefhamzaabovefinalarabic" unicode="&#xfee0;&#xfe84;" horiz-adv-x="1098" arabic-form="final" 
d="M332 1379l-26 -79q-115 -35 -155 -69l-50 -42l-69 -58l-2 10q0 7 4 21t10 28.5t12.5 26.5t11.5 16q-75 50 -75 95q0 58 61 135q56 71 164 71q28 0 51 -10l-28 -79q-5 11 -57 11q-23 0 -47 -7.5t-44 -20.5t-32.5 -30.5t-12.5 -38.5q0 -32 46 -32h51zM1237 226h-208
q-99 0 -146 95q-1 3 -14.5 47l-39.5 131q-25 80 -25 111q-7 -41 -27 -90q-20 -50 -58 -121q-85 -158 -121 -194q-119 -122 -464 -122q-125 0 -175 22q320 49 563 220q14 67 14 117q0 112 -62 195q-126 171 -179 206l-54 -65q-150 149 -150 258q0 18 6 37.5t16 35t23 26
t27 10.5q80 0 228 -168q124 -140 181 -247q38 -72 38 -326q32 37 53.5 66.5t32.5 51.5q29 57 42 144q16 107 23.5 234.5t7.5 278.5q0 42 -1.5 70.5t-5.5 44.5l130 108v-227q0 -440 39 -700q17 -86 191 -86h115v-163z" />
    <glyph glyph-name="lamalefhamzabelowisolatedarabic" unicode="&#xfedf;&#xfe88;" arabic-form="isolated" 
d="M947 1238l-68 -138l-39 9q-30 -238 -150 -454q61 -144 61 -275q0 -165 -103 -169l-353 -15l11 171q173 104 275 252l6 4q-5 5 -9.5 11.5l-9.5 13.5q-127 182 -243 261l-48 -59q-152 141 -152 255q0 23 5.5 43.5t16 36t24.5 24.5t30 9q87 0 248 -200q54 -66 103 -137
t96 -148q101 216 101 429q0 108 -23 203l110 113l38 -154zM747 -125l-25 -80q-51 -16 -87 -32t-62 -32q-36 -22 -123 -104l-5 9q0 7 4 21t10 28.5t12.5 26.5t12.5 17q-73 48 -73 96q0 53 61 132q56 72 163 72q29 0 50 -10l-26 -79q-9 11 -60 11q-24 0 -48 -7.5t-43.5 -21
t-32 -31t-12.5 -37.5q0 -33 46 -33h54l89 26.5zM665 421q0 54 -39 129q-60 -90 -163 -181l196 13q6 20 6 39z" />
    <glyph glyph-name="lamalefhamzabelowfinalarabic" unicode="&#xfee0;&#xfe88;" horiz-adv-x="1098" arabic-form="final" 
d="M904 -76l-25 -80q-118 -35 -157 -68l-49 -42.5t-69 -57.5q-1 2 -1 5q0 2 -1 5q0 7 4.5 21t10.5 28.5t12.5 27t11.5 17.5q-76 48 -76 95q0 54 61 133q56 71 165 71q27 0 49 -9l-30 -80q-2 11 -56 11q-26 0 -50 -7.5t-43 -20.5t-30 -30.5t-11 -38.5q0 -32 45 -32h52z
M1237 226h-208q-99 0 -146 95q-1 3 -14.5 47l-39.5 131q-25 80 -25 111q-7 -41 -27 -90q-20 -50 -58 -121q-85 -158 -121 -194q-119 -122 -464 -122q-125 0 -175 22q320 49 563 220q14 67 14 117q0 112 -62 195q-126 171 -179 206l-54 -65q-150 149 -150 258q0 18 6 37.5
t16 35t23 26t27 10.5q80 0 228 -168q124 -140 181 -247q38 -72 38 -326q32 37 53.5 66.5t32.5 51.5q29 57 42 144q16 107 23.5 234.5t7.5 278.5q0 42 -1.5 70.5t-5.5 44.5l130 108v-227q0 -440 39 -700q17 -86 191 -86h115v-163z" />
    <glyph glyph-name="lamalefmaddaaboveisolatedarabic" unicode="&#xfedf;&#xfe82;" arabic-form="isolated" 
d="M947 1238l-68 -138l-39 9q-30 -238 -150 -454q61 -144 61 -275q0 -165 -103 -169l-353 -15l11 171q173 104 275 252l6 4q-5 5 -9.5 11.5l-9.5 13.5q-127 182 -243 261l-48 -59q-152 141 -152 255q0 23 5.5 43.5t16 36t24.5 24.5t30 9q87 0 248 -200q54 -66 103 -137
t96 -148q101 216 101 429q0 108 -23 203l110 113l38 -154zM484 1543q-14 -54 -27 -89.5t-26 -53.5q-42 -61 -134 -61q-6 0 -19.5 1.5l-27.5 3l-27 3t-19 1.5q-50 0 -88 -24q-7 -4 -25.5 -17.5t-47.5 -38.5q17 54 30 88t22 48q44 68 119 68q9 0 28 -3.5l39 -7.5l38.5 -7.5
t27.5 -3.5q52 0 83 26q14 10 54 67zM665 421q0 54 -39 129q-60 -90 -163 -181l196 13q6 20 6 39zM626 551v-1l1 1v1z" />
    <glyph glyph-name="behinitialarabic" unicode="&#x628;" horiz-adv-x="558" arabic-form="initial" 
d="M552 373q0 -147 -41 -147h-525v163h436q13 0 13 23q0 17 -10.5 49t-26 63.5t-32 55t-28.5 23.5l75 177q52 -23 98 -185q41 -144 41 -222zM422 -153l-79 -141l-191 107l73 136z" />
    <glyph glyph-name="tehinitialarabic" unicode="&#x62a;" horiz-adv-x="558" arabic-form="initial" 
d="M552 373q0 -147 -41 -147h-525v163h436q13 0 13 23q0 17 -10.5 49t-26 63.5t-32 55t-28.5 23.5l75 177q52 -23 98 -185q41 -144 41 -222zM459 1018l-178 104l70 116l178 -100zM32 1109l73 117l176 -104l-70 -115z" />
    <glyph glyph-name="thehinitialarabic" unicode="&#x62b;" horiz-adv-x="558" arabic-form="initial" 
d="M552 373q0 -147 -41 -147h-525v163h436q13 0 13 23q0 17 -10.5 49t-26 63.5t-32 55t-28.5 23.5l75 177q52 -23 98 -185q41 -144 41 -222zM332 1407l-78 -143l-193 115l75 136zM22 1105l73 133l186 -111l-73 -136zM472 1014l-191 113l68 125l191 -111z" />
    <glyph glyph-name="jeeminitialarabic" unicode="&#x62c;" horiz-adv-x="1155" arabic-form="initial" 
d="M1155 226h-1169v163h806q0 10 -17.5 31.5t-46 47.5t-64 52t-70.5 44q-98 52 -183 52q-65 0 -221 -63q64 118 95 152q61 67 161 67q149 0 351 -178q70 -61 159 -112t199 -93v-163zM674 -114l-79 -148l-205 113l84 143z" />
    <glyph glyph-name="hahinitialarabic" unicode="&#x62d;" horiz-adv-x="1155" arabic-form="initial" 
d="M1155 226h-1169v163h806q0 8 -17.5 30.5t-46 48.5t-64 52t-70.5 44q-98 52 -183 52q-65 0 -221 -63q64 118 95 152q61 67 161 67q149 0 351 -178q70 -61 159 -112t199 -93v-163z" />
    <glyph glyph-name="khahinitialarabic" unicode="&#x62e;" horiz-adv-x="1155" arabic-form="initial" 
d="M1155 226h-1169v163h806q0 8 -17.5 30.5t-46 48.5t-64 52t-70.5 44q-98 52 -183 52q-65 0 -221 -63q64 118 95 152q61 67 161 67q149 0 351 -178q70 -61 159 -112t199 -93v-163zM663 1215l-82 -144l-198 117l80 139z" />
    <glyph glyph-name="seeninitialarabic" unicode="&#x633;" horiz-adv-x="1389" arabic-form="initial" 
d="M1382 467q0 -129 -15 -209q-73 -46 -127 -46q-199 0 -330 68q-125 -58 -236 -58q-169 0 -295 52q-40 -48 -201 -48h-192v163q6 -3 45 -3q287 0 314 30q14 16 14 72q0 33 -8 65l119 129q2 -16 3 -40.5t1 -58.5q0 -13 -4.5 -38l-9.5 -52l-9.5 -49.5t-4.5 -30.5q3 -4 17 -9
q71 -24 197 -24h48q169 0 182 19q9 12 9 70q0 56 -6 77l124 125q-2 -46 -5.5 -94t-8.5 -99q-3 -28 -15 -66l-1 -3q0 -33 135 -33q133 0 133 66q0 93 -38 129l129 116q36 -109 36 -220z" />
    <glyph glyph-name="sheeninitialarabic" unicode="&#x634;" horiz-adv-x="1389" arabic-form="initial" 
d="M1382 467q0 -129 -15 -209q-73 -46 -127 -46q-199 0 -330 68q-125 -58 -236 -58q-169 0 -295 52q-40 -48 -201 -48h-192v163q6 -3 45 -3q287 0 314 30q14 16 14 72q0 33 -8 65l119 129q2 -16 3 -40.5t1 -58.5q0 -13 -4.5 -38l-9.5 -52l-9.5 -49.5t-4.5 -30.5q3 -4 17 -9
q71 -24 197 -24h48q169 0 182 19q9 12 9 70q0 56 -6 77l124 125q-2 -46 -5.5 -94t-8.5 -99q-3 -28 -15 -66l-1 -3q0 -33 135 -33q133 0 133 66q0 93 -38 129l129 116q36 -109 36 -220zM708 952l91 121l166 -118l-91 -123zM1033 1211l-91 -118l-158 114l90 121zM1126 841
l-161 114l88 118l160 -107z" />
    <glyph glyph-name="tahinitialarabic" unicode="&#x637;" horiz-adv-x="1122" arabic-form="initial" 
d="M1126 280q0 -54 -66 -54h-1074v163h148q29 0 64.5 4t67 10.5t53 15.5t21.5 18v742l-37 178l117 145l11 -174l80 -82l-71 -141v-606q48 72 174 149q131 78 211 78q36 0 69 -15q75 -32 121.5 -57t63.5 -46q47 -56 47 -198v-130zM1042 410q0 67 -119 114q-93 37 -174 37
q-44 0 -159 -68q-118 -70 -118 -105q0 -17 229 -17q341 0 341 39z" />
    <glyph glyph-name="zahinitialarabic" unicode="&#x638;" horiz-adv-x="1122" arabic-form="initial" 
d="M1126 280q0 -54 -66 -54h-1074v163h148q29 0 64.5 4t67 10.5t53 15.5t21.5 18v742l-37 178l117 145l11 -174l80 -82l-71 -141v-606q48 72 174 149q131 78 211 78q36 0 69 -15q75 -32 121.5 -57t63.5 -46q47 -56 47 -198v-130zM1042 410q0 67 -119 114q-93 37 -174 37
q-46 0 -159 -68q-118 -70 -118 -106q0 -16 229 -16q341 0 341 39zM951 1093l-82 -144l-199 115l75 140z" />
    <glyph glyph-name="aininitialarabic" unicode="&#x639;" horiz-adv-x="879" arabic-form="initial" 
d="M860 410l-65 -158l-327 -26h-482v163h218q-76 103 -76 164q0 103 192 254q53 41 122 41q47 0 88.5 -18.5t74 -51.5t54.5 -78t31 -97q-12 15 -36.5 29t-54.5 25t-61.5 17.5t-58.5 6.5q-142 0 -202 -123l-1 -5q0 -18 19.5 -45t57.5 -59q37 -32 65.5 -47t48.5 -15z" />
    <glyph glyph-name="ghaininitialarabic" unicode="&#x63a;" horiz-adv-x="879" arabic-form="initial" 
d="M860 410l-65 -158l-327 -26h-482v163h218q-76 103 -76 164q0 103 192 254q53 41 122 41q47 0 88.5 -18.5t74 -51.5t54.5 -78t31 -97q-12 15 -36.5 29t-54.5 25t-61.5 17.5t-58.5 6.5q-142 0 -202 -123l-1 -5q0 -18 19.5 -45t57.5 -59q37 -32 65.5 -47t48.5 -15zM557 1215
l-78 -131l-188 106l84 134z" />
    <glyph glyph-name="fehinitialarabic" unicode="&#x641;" horiz-adv-x="678" arabic-form="initial" 
d="M670 384q0 -130 -16 -149q-6 -9 -80 -9h-588v163h493l-170 72q-93 54 -93 142q0 86 90 215q95 134 175 134q108 0 157 -240q17 -78 24.5 -159t7.5 -169zM581 518q0 53 -52 153q-57 108 -102 108q-13 0 -32.5 -15t-38 -35.5t-33 -41.5t-17.5 -34l270 -147q5 3 5 12z
M542 1222l-79 -136l-194 117l80 136z" />
    <glyph glyph-name="qafinitialarabic" unicode="&#x642;" horiz-adv-x="678" arabic-form="initial" 
d="M670 384q0 -130 -16 -149q-6 -9 -80 -9h-588v163h493l-170 72q-93 54 -93 142q0 86 90 215q95 134 175 134q108 0 157 -240q17 -78 24.5 -159t7.5 -169zM581 518q0 53 -52 153q-57 108 -102 108q-13 0 -32.5 -15t-38 -35.5t-33 -41.5t-17.5 -34l270 -147q5 3 5 12z
M558 1105l-182 111l70 127l185 -107zM125 1203l70 125l181 -112l-67 -123z" />
    <glyph glyph-name="kafinitialarabic" unicode="&#x6a9;" horiz-adv-x="834" arabic-form="initial" 
d="M821 347q0 -76 -24 -112q-6 -9 -93 -9h-718v163h547q119 0 119 16q0 28 -213 224q-212 196 -244 196q-7 -8 -17 -57l-44 40l-60 56q-63 62 -63 120q0 60 59 157q33 52 747 343l-83 -203l-591 -241q14 -13 38.5 -32.5l59.5 -45.5q201 -153 341 -289.5t221 -257.5
q18 -27 18 -68z" />
    <glyph glyph-name="laminitialarabic" unicode="&#x644;" horiz-adv-x="438" arabic-form="initial" 
d="M431 1225l-70 -141v-832l-43 -26h-332v163h248v770l-45 175l149 150l13 -175z" />
    <glyph glyph-name="meeminitialarabic" unicode="&#x645;" horiz-adv-x="825" arabic-form="initial" 
d="M813 351q0 -139 -140 -139q-71 0 -176 34q-113 37 -152 82q-31 -102 -148 -102h-211v163q300 0 328 21q15 12 51 102q25 63 48.5 106t47 69.5t49 38t54.5 11.5q96 0 176 -149q36 -66 55 -125t18 -112zM706 410q0 27 -14.5 58.5t-36 58.5t-48 45t-50.5 18q-16 0 -39 -14
t-44.5 -33.5t-36.5 -41t-15 -37.5q0 -8 12.5 -18t33 -20.5t45 -21t48.5 -18t44.5 -12.5t32.5 -5q68 0 68 41z" />
    <glyph glyph-name="nooninitialarabic" unicode="&#x646;" horiz-adv-x="552" arabic-form="initial" 
d="M552 373q0 -147 -41 -147h-525v163h436q13 0 13 23q0 17 -10.5 49t-26 63.5t-32 55t-28.5 23.5l75 177q52 -23 98 -185q41 -144 41 -222zM434 1141l-73 -134l-193 109l73 136z" />
    <glyph glyph-name="hehinitialarabic" unicode="&#x647;" horiz-adv-x="978" arabic-form="initial" 
d="M940 422q0 -21 -6 -57.5t-15.5 -72t-21 -61.5t-21.5 -26q-18 0 -156 41q-135 40 -152 53q-145 -73 -299 -73h-283v163h402q-24 75 -24 106q0 72 64 161q61 86 130 117l-84 63l45 108q36 84 57 84q65 0 175 -137q190 -233 189 -469zM849 405q0 46 -66 175
q-69 134 -102 134l-5 -3q1 -8 4 -28.5l6.5 -44.5t6 -47t2.5 -36q0 -46 -25 -124q0 -1 18.5 -8t45.5 -16t57 -16.5t54 -8.5q4 9 4 23zM626 492q0 23 -4 51t-11.5 52.5t-16.5 41.5t-20 17q-24 0 -81 -61q-56 -61 -56 -84q0 -12 17.5 -23t42 -20t50.5 -14.5t43 -5.5q36 0 36 46
z" />
    <glyph glyph-name="behmedialarabic" unicode="&#x628;" horiz-adv-x="558" arabic-form="medial" 
d="M697 226h-711v163h436q13 0 13 23q0 17 -10.5 49t-26 63.5t-32 55t-28.5 23.5l78 180q56 -64 96 -186q40 -117 40 -208h145v-163zM422 -153l-79 -141l-191 107l73 136z" />
    <glyph glyph-name="tehmedialarabic" unicode="&#x62a;" horiz-adv-x="558" arabic-form="medial" 
d="M697 226h-711v163h436q13 0 13 23q0 17 -10.5 49t-26 63.5t-32 55t-28.5 23.5l78 180q56 -64 96 -186q40 -117 40 -208h145v-163zM459 1018l-178 104l70 116l178 -100zM32 1109l73 117l176 -104l-70 -115z" />
    <glyph glyph-name="thehmedialarabic" unicode="&#x62b;" horiz-adv-x="558" arabic-form="medial" 
d="M697 226h-711v163h436q13 0 13 23q0 17 -10.5 49t-26 63.5t-32 55t-28.5 23.5l78 180q56 -64 96 -186q40 -117 40 -208h145v-163zM332 1407l-78 -143l-193 115l75 136zM22 1105l73 133l186 -111l-73 -136zM472 1014l-191 113l68 125l191 -111z" />
    <glyph glyph-name="yehinitialarabic" unicode="&#x64a;" horiz-adv-x="558" arabic-form="initial" 
d="M552 373q0 -147 -41 -147h-525v163h436q13 0 13 23q0 17 -10.5 49t-26 63.5t-32 55t-28.5 23.5l75 177q52 -23 98 -185q41 -144 41 -222zM22 -194l72 125l171 -107l-68 -122zM434 -283l-169 107l64 114l171 -102z" />
    <glyph glyph-name="yehhamzaabovemedialarabic" unicode="&#x626;" horiz-adv-x="558" arabic-form="medial" 
d="M697 226h-711v163h436q13 0 13 23q0 17 -10.5 49t-26 63.5t-32 55t-28.5 23.5l78 180q56 -64 96 -186q40 -117 40 -208h145v-163zM446 1229l-24 -78q-57 -22 -94 -38.5t-55 -28.5q-4 -1 -126 -102q-1 2 -1 4q0 3 -1 5q0 9 4 23t10 28t12.5 25.5t12.5 16.5q-45 32 -54 41
q-24 24 -24 61q0 39 18.5 76.5t50 66.5t72 46.5t85.5 17.5q29 0 50 -10l-25 -66q-16 6 -41 6q-28 0 -54.5 -8t-47.5 -22t-33.5 -33t-12.5 -42q0 -40 94 -56z" />
    <glyph glyph-name="jeemmedialarabic" unicode="&#x62c;" horiz-adv-x="1155" arabic-form="medial" 
d="M1294 226h-1308v163h806q0 11 -18 32t-46.5 47t-64 52t-69.5 44q-97 52 -183 52q-65 0 -221 -63q64 118 95 152q61 67 161 67q149 0 351 -178q35 -30 75.5 -61t89.5 -62q129 -82 182 -82h150v-163zM674 -114l-79 -148l-205 113l84 143z" />
    <glyph glyph-name="khahmedialarabic" unicode="&#x62e;" horiz-adv-x="1155" arabic-form="medial" 
d="M1294 226h-1308v163h806q0 11 -18 32t-46.5 47t-64 52t-69.5 44q-97 52 -183 52q-65 0 -221 -63q64 118 95 152q61 67 161 67q149 0 351 -178q35 -30 75.5 -61t89.5 -62q129 -82 182 -82h150v-163zM663 1215l-82 -144l-198 117l80 139z" />
    <glyph glyph-name="seenmedialarabic" unicode="&#x633;" horiz-adv-x="1385" arabic-form="medial" 
d="M1525 226h-204q-6 0 -20 -2.5t-30 -5t-30 -5t-22 -2.5q-164 0 -314 69q-125 -58 -235 -58q-169 0 -295 52q-48 -48 -202 -48h-187v163q6 -3 45 -3q284 0 309 30q14 17 14 72q0 35 -9 65l118 129q2 -14 3.5 -37t1.5 -55q0 -81 -28 -175v-2q0 -5 33.5 -9.5t89 -8
t128.5 -5.5t151 -2q52 0 52 81q0 56 -7 77l123 125v-96q-5 -46 -10 -86.5t-17 -76.5l-1 -2q0 -23 133 -23q82 0 86 1q49 9 49 54q0 93 -37 129l128 116q37 -108 37 -293l-3 -5h150v-163z" />
    <glyph glyph-name="yehbarreefinalarabic" unicode="&#x6d2;" horiz-adv-x="1098" arabic-form="final" 
d="M1200 -15l-69 -164h-854q-10 82 -14.5 129t-4.5 60q0 103 82 215q82 111 181 143q58 19 230 19q62 0 126 58t95 58q20 0 40 -10t35.5 -26.5t25.5 -37t10 -40.5v-163q-66 123 -139 123q-31 0 -76 -39q-44 -40 -84 -41q-94 -3 -144.5 -6.5t-59.5 -5.5q-73 -16 -171 -113
q-82 -82 -82 -136q0 -26 149 -26q74 0 117.5 1.5t41.5 1.5h565z" />
    <glyph glyph-name="lammeemhahinitialarabic" unicode="&#xfd88;" horiz-adv-x="1907" arabic-form="initial" 
d="M1861 287q0 -17 -16 -68q-13 -17 -24 -28.5t-21 -18.5l-180 134q-204 -80 -288 -80h-1346v163h805l1 4q-5 16 -45 57q-159 166 -336 166q-65 0 -221 -63q32 60 56 97.5t40 54.5q61 67 160 67q114 0 251 -101q5 -3 22 -16l40.5 -31l50.5 -39l52 -40l45 -34.5t30 -22.5
q66 -49 122.5 -74t105.5 -25q12 0 38 0.5t53 0.5q28 0 50 0.5t24 0.5q99 9 154 49v715q-4 13 -19.5 60l-41.5 128l152 141q1 -23 0 -42.5t-1 -35.5v-20q0 -62 26.5 -109t76.5 -79l-81 -132v-543l249 -192q16 -28 16 -44z" />
    <glyph glyph-name="shaddakasraarabic" unicode="&#xfc62;" horiz-adv-x="0" arabic-form="isolated" 
d="M418 2037q0 -34 -7.5 -66t-20 -57t-29 -40t-34.5 -15q-15 0 -41 14q-14 9 -29 26q-3 -14 -13 -35.5t-26 -34.5q-76 -59 -105 -59q-85 0 -85 172q0 8 0.5 14.5t1.5 12.5l57 33q-6 -12 -6 -25q0 -114 47 -114q69 0 69 154q0 25 -7 26l55 31q-1 -4 -1 -14q0 -18 6 -38.5
t16.5 -37.5t24 -28.5t27.5 -11.5q41 0 41 88q0 79 -16 83l64 36q11 -13 11 -114zM390 1688l-347 -197v84l347 195v-82z" />
    <glyph glyph-name="shaddakasratanarabic" unicode="&#xfc5f;" horiz-adv-x="0" arabic-form="isolated" 
d="M418 2217q0 -34 -7 -66.5t-19.5 -57.5t-29 -40.5t-35.5 -15.5q-12 0 -29.5 7t-43.5 25q-2 -17 -11.5 -35.5t-25.5 -34.5q-71 -53 -104 -53q-19 0 -34.5 14.5t-26.5 39t-17.5 56.5t-6.5 66q0 6 0.5 12t1.5 13l57 33q-5 -15 -5 -32q0 -51 15 -80t31 -29q69 0 69 156
q0 25 -7 29l50 22q4 -26 10 -46.5t16.5 -37.5t24 -28.5t27.5 -11.5q41 0 41 88q3 48 -16 82l64 35q11 -34 11 -110zM388 1881l-347 -178v83l347 175v-80zM388 1706l-347 -172v78l347 167v-73z" />
    <glyph glyph-name="gaffinalarabic" unicode="&#x6af;" horiz-adv-x="1323" arabic-form="final" 
d="M1462 226h-1287q-93 0 -124 19q-44 26 -44 115q0 97 70 215q62 101 77 101h2q0 -11 -22 -86q-13 -48 -13 -87q0 -116 75 -116h803q131 2 140 17v1q0 29 -202 224q-202 196 -231 196q-5 -7 -16 -57l-43 39.5l-60 55.5q-67 64 -67 121q0 66 61 157q34 52 749 343l-86 -203
l-591 -242q0 -10 92 -87q489 -411 556 -563h161v-163zM1170 1527l-639 -284l-22 43l639 286z" />
    <glyph glyph-name="sheenmedialarabic" unicode="&#x634;" horiz-adv-x="1389" arabic-form="medial" 
d="M1525 226h-204q-6 0 -20 -2.5t-30 -5t-30 -5t-22 -2.5q-164 0 -314 69q-125 -58 -235 -58q-169 0 -295 52q-40 -48 -202 -48h-187v163q6 -3 45 -3q284 0 309 30q14 17 14 70q0 37 -9 67l118 129q2 -14 3.5 -37t1.5 -55q0 -59 -28 -177q0 -5 34 -9.5t90.5 -8t129 -5.5
t148.5 -2q52 0 52 81q0 56 -7 77q123 111 123 94q0 -16 -1 -38.5t-4.5 -52.5t-11.5 -71q-11 -53 -11 -68q0 -23 133 -23q82 0 86 1q49 9 49 54q0 93 -37 129l128 116q38 -116 38 -229q0 -17 -1 -34.5t-3 -34.5h150v-163zM708 952l91 121l166 -118l-91 -123zM1033 1211
l-91 -118l-158 114l90 121zM1126 841l-161 114l88 118l160 -107z" />
    <glyph glyph-name="sadmedialarabic" unicode="&#x635;" horiz-adv-x="1742" arabic-form="medial" 
d="M1880 226h-1281q-171 0 -220 61q-39 -61 -393 -61v163q307 0 359 30q1 8 1.5 18.5t0.5 24.5q0 62 -9 80l125 140q14 -48 14 -100q0 -84 -31 -167q194 -27 207 -27q106 0 359 192q254 193 341 193q28 0 59 -14q253 -114 292 -197q11 -22 16.5 -50.5t5.5 -67.5
q0 -37 -6 -55h160v-163zM1627 442q0 29 -144 98q-139 66 -182 66q-55 0 -189 -84q-133 -82 -161 -133h220q229 -2 342.5 14t113.5 39z" />
    <glyph glyph-name="dadmedialarabic" unicode="&#x636;" horiz-adv-x="1742" arabic-form="medial" 
d="M1880 226h-1281q-171 0 -220 61q-40 -61 -357 -61h-36v163h96q211 0 263 30q1 8 1.5 18.5t0.5 24.5q0 61 -9 80l125 140q14 -48 14 -100q0 -84 -31 -167q192 -27 207 -27q106 0 359 192q253 193 341 193q58 0 192 -80q133 -79 159 -131q22 -41 22 -118q0 -35 -6 -55h160
v-163zM1627 442q0 29 -145 98q-70 34 -115 50t-66 16q-54 0 -188 -83q-133 -82 -162 -134h332q344 0 344 53zM1425 1147l-88 -140l-195 129l91 139z" />
    <glyph glyph-name="tahmedialarabic" unicode="&#x637;" horiz-adv-x="1126" arabic-form="medial" 
d="M1265 226h-1279v163h131q33 0 70 4.5t68 11t51.5 15t20.5 17.5v742l-39 178l117 145l11 -174l81 -82l-70 -141v-606q10 25 127 115q146 112 256 112q37 0 71 -15q155 -63 191 -110q41 -55 41 -212h152v-163zM1026 410q0 68 -118 114q-93 37 -174 37q-44 0 -160 -68
q-118 -70 -118 -105q0 -17 229 -17q341 0 341 39z" />
    <glyph glyph-name="zahmedialarabic" unicode="&#x638;" horiz-adv-x="1139" arabic-form="medial" 
d="M1265 226h-1279v163h131q33 0 70 4.5t68 11t51.5 15t20.5 17.5v742l-39 178l117 145l11 -174l81 -82l-70 -141v-606q10 25 127 115q146 112 256 112q37 0 71 -15q155 -63 191 -110q41 -55 41 -212h152v-163zM1026 410q0 68 -118 114q-93 37 -174 37q-44 0 -160 -68
q-118 -70 -118 -105q0 -17 229 -17q341 0 341 39zM951 1093l-82 -144l-199 115l75 140z" />
    <glyph glyph-name="ainmedialarabic" unicode="&#x639;" horiz-adv-x="797" arabic-form="medial" 
d="M936 226h-169q-187 0 -275 121l-176 -84q-92 -37 -191 -37h-139v163q45 0 102 5t127 15q194 29 194 72q0 19 -16 38.5t-38.5 35t-47.5 25.5t-43 10q-46 0 -78 -21q0 36 41 118q42 82 72 109q51 45 135 45q46 0 90.5 -17.5t80 -47t57 -68.5t21.5 -81q0 -43 -81 -190
q31 -43 160 -49q-1 1 174 1v-163z" />
    <glyph glyph-name="ghainmedialarabic" unicode="&#x63a;" horiz-adv-x="797" arabic-form="medial" 
d="M936 226h-169q-184 0 -275 121q-229 -121 -367 -121h-139v163q45 0 102 5t127 15q194 29 194 72q0 19 -16 38.5t-38.5 35t-47.5 25.5t-43 10q-46 0 -78 -21q0 36 41 118q42 82 72 109q51 45 135 45q46 0 90.5 -17.5t80 -47t57 -68.5t21.5 -81q0 -43 -81 -190
q30 -40 165 -48h169v-163zM579 1138l-70 -128l-191 109l75 129z" />
    <glyph glyph-name="fehmedialarabic" unicode="&#x641;" horiz-adv-x="678" arabic-form="medial" 
d="M817 226h-831v163h491q-32 23 -107 48q-44 15 -73.5 31.5t-47.5 36t-25.5 44.5t-7.5 56q0 86 90 213q95 134 173 134q85 0 144 -194q48 -159 48 -310q0 -39 -6 -59h152v-163zM579 518q0 50 -53 153q-55 109 -103 109q-13 0 -32 -15t-37.5 -35.5t-33 -42t-17.5 -34.5
l271 -147q5 3 5 12zM540 1222l-79 -136l-195 117l79 136z" />
    <glyph glyph-name="qafmedialarabic" unicode="&#x642;" horiz-adv-x="678" arabic-form="medial" 
d="M817 226h-831v163h491q-32 23 -107 48q-44 15 -73.5 31.5t-47.5 36t-25.5 44.5t-7.5 56q0 86 90 213q95 134 173 134q85 0 144 -194q48 -159 48 -310q0 -39 -6 -59h152v-163zM579 518q0 50 -53 153q-55 109 -103 109q-13 0 -32 -15t-37.5 -35.5t-33 -42t-17.5 -34.5
l271 -147q5 3 5 12zM558 1105l-182 111l70 127l185 -107zM125 1203l70 125l181 -112l-67 -123z" />
    <glyph glyph-name="kafmedialarabic" unicode="&#x6a9;" horiz-adv-x="842" arabic-form="medial" 
d="M981 226h-995v163h560q117 0 117 16q0 25 -215 222q-214 198 -243 198q-5 0 -16 -57l-44.5 39.5l-61.5 56.5q-65 62 -65 120q0 60 62 157q17 26 204.5 111.5t544.5 231.5l-86 -203l-591 -241l33 -24.5l56 -42.5q386 -290 588 -584h152v-163z" />
    <glyph glyph-name="lammedialarabic" unicode="&#x644;" horiz-adv-x="438" arabic-form="medial" 
d="M576 226h-590v163h306v890l132 205v-1095h152v-163z" />
    <glyph glyph-name="meemmedialarabic" unicode="&#x645;" horiz-adv-x="825" arabic-form="medial" 
d="M962 226h-211q-22 -14 -75 -14q-189 0 -331 116q-31 -102 -148 -102h-211v163q300 0 328 21q17 13 53 103q25 63 48 106t46 69.5t48.5 37.5t55.5 11q76 0 162 -128q83 -121 82 -204v-8q0 -4 -1 -8h154v-163zM706 410q0 27 -14.5 58.5t-36 58.5t-48 45t-50.5 18
q-16 0 -39 -14t-44.5 -33.5t-36.5 -41t-15 -37.5q0 -8 12.5 -18t33 -20.5t45 -21t48.5 -18t44.5 -12.5t32.5 -5q68 0 68 41z" />
    <glyph glyph-name="noonmedialarabic" unicode="&#x646;" horiz-adv-x="558" arabic-form="medial" 
d="M697 226h-711v163h436q13 0 13 23q0 17 -10.5 49t-26 63.5t-32 55t-28.5 23.5l78 180q56 -64 96 -186q40 -117 40 -208h145v-163zM434 1141l-73 -134l-193 109l73 136z" />
    <glyph glyph-name="hehmedialarabic" unicode="&#x647;" horiz-adv-x="797" arabic-form="medial" 
d="M936 226h-400q9 -9 45 -34q4 -12 4 -36q0 -91 -21 -210q-28 -160 -79 -160q-123 0 -204 126q-54 85 -86 314h-209v163h244q-1 2 -1.5 4t-1.5 4q0 68 120 273q125 212 182 212q58 0 58 -262q0 -150 -8 -164l-26 -27l-35 -36q3 -4 418 -4v-163zM518 25q0 41 -16 78t-44 65
t-64.5 45t-77.5 17h-21q-9 0 -14 -8q0 -59 69 -161q74 -108 129 -108q39 0 39 72zM509 495q0 187 -41 187q-28 0 -99 -123q-66 -116 -72 -160q5 -6 14 -6t28 3t45 10.5t56.5 20t63.5 31.5q5 8 5 37z" />
    <glyph glyph-name="yehmedialarabic" unicode="&#x64a;" horiz-adv-x="558" arabic-form="medial" 
d="M697 226h-711v163h436q13 0 13 23q0 17 -10.5 49t-26 63.5t-32 55t-28.5 23.5l78 180q56 -64 96 -186q40 -117 40 -208h145v-163zM22 -194l72 125l171 -107l-68 -122zM434 -283l-169 107l64 114l171 -102z" />
    <glyph glyph-name="alefmaddaabovefinalarabic" unicode="&#x622;" horiz-adv-x="550" arabic-form="final" 
d="M689 226h-290q-81 0 -121.5 15t-64 40t-33.5 66.5t-9 113.5v480l117 159v-639q3 -72 64 -72h337v-163zM143 1354q-21 0 -33.5 -1.5t-23.5 -8t-23 -20t-31 -38.5q0 50 7 91q12 77 168 77q29 0 48 2.5t32.5 10.5t24 22.5t21.5 37.5q0 -13 3 -39q-2 -134 -193 -134z" />
    <glyph glyph-name="alefhamzaabovefinalarabic" unicode="&#x623;" horiz-adv-x="550" arabic-form="final" 
d="M689 226h-290q-81 0 -121.5 15t-64 40t-33.5 66.5t-9 113.5v480l117 159v-639q3 -72 64 -72h337v-163zM336 1372l-25 -78l-66 -26.5t-70 -29.5q-14 -6 -36 -23.5t-43.5 -36.5t-37.5 -35t-19 -18q-5 5 -5 11q0 53 39 90q-73 49 -73 94q0 43 19.5 80t51.5 64.5t72 43.5
t82 16q28 0 48 -7l-28 -78q-5 11 -56 11q-25 0 -49.5 -7.5t-44 -21t-31.5 -31.5t-12 -38q0 -32 46 -32h52z" />
    <glyph glyph-name="wawhamzaabovefinalarabic" unicode="&#x624;" horiz-adv-x="734" arabic-form="final" 
d="M869 226h-169q-9 -88 -48.5 -166t-101 -135.5t-141 -91t-168.5 -33.5q-124 0 -236 98q-110 97 -133 223q37 -69 149 -133q113 -65 193 -65q66 0 130 23t117.5 63t93 94.5t55.5 118.5q-12 -3 -23 -3q-52 0 -98.5 17.5t-81 48t-54.5 71.5t-20 88q0 72 69 190
q75 128 140 128q85 0 136 -150q39 -112 39 -223h152v-163zM557 1047l-26 -78q-51 -16 -87 -32t-61 -32q-19 -11 -49.5 -37t-75.5 -68l-4 9q0 8 4 21.5t10 28t12.5 27t11.5 16.5q-72 50 -72 96q0 56 61 133q56 72 165 72q27 0 49 -8l-27 -82q-7 12 -61 12q-26 0 -50.5 -7.5
t-43 -20.5t-29.5 -31t-11 -38q0 -33 45 -33h54zM631 410q0 27 -9.5 54.5t-26 50t-38.5 36.5t-47 14q-15 0 -28.5 -9t-24 -22.5t-17 -29.5t-6.5 -31q0 -16 17.5 -31.5t43.5 -27t55.5 -18.5t53.5 -7q27 0 27 21z" />
    <glyph glyph-name="alefhamzabelowfinalarabic" unicode="&#x625;" horiz-adv-x="550" arabic-form="final" 
d="M689 226h-194q-83 0 -136 19t-78 60.5t-25 145.5v873l127 160v-1033q0 -62 58 -62h248v-163zM461 -114l-26 -82q-103 -33 -149 -66l-123 -102q-5 5 -5 11q0 53 39 94q-72 46 -72 92q0 41 19 78t50.5 65t72.5 44.5t84 16.5q29 0 48 -6l-27 -82q-6 13 -61 13
q-24 0 -48 -7.5t-42.5 -20.5t-30.5 -31t-12 -38q0 -32 45 -32h54z" />
    <glyph glyph-name="yehhamzaabovefinalarabic" unicode="&#x626;" horiz-adv-x="1101" arabic-form="final" 
d="M1239 223q-505 0 -505 -70q0 -19 123 -60q54 -17 90 -26.5t55 -8.5h8l-36 -218q-3 -19 -46.5 -51.5t-125.5 -80.5q-200 -110 -382 -110q-157 0 -273 80q-129 88 -129 239q0 131 77 302q68 146 86 146h3l2 -7q-7 -22 -21.5 -61.5t-28 -86.5t-24 -96t-10.5 -89
q0 -228 297 -228q75 0 226 30q178 34 178 72q0 12 -97 49q-96 37 -96 71q0 247 178 323q110 48 396 48q34 0 55 -6v-161zM270 919l-25 -80q-108 -41 -149 -66q-1 -2 -124 -102l-4 10q0 52 39 92q-72 48 -72 94q0 41 19.5 77.5t51 65t72 45t83.5 16.5q29 0 47 -7l-26 -80
q-8 11 -59 11q-25 0 -49.5 -8t-44 -21t-31.5 -30.5t-12 -37.5q0 -31 46 -31h55q42 11 87.5 24.5z" />
    <glyph glyph-name="aleffinalarabic" unicode="&#x627;" horiz-adv-x="550" arabic-form="final" 
d="M689 226h-194q-83 0 -136 19t-78 60.5t-25 145.5v873l127 160v-1033q0 -62 58 -62h248v-163z" />
    <glyph glyph-name="behfinalarabic" unicode="&#x628;" horiz-adv-x="1204" arabic-form="final" 
d="M1343 226h-212q-10 -37 -266 -72q-205 -27 -313 -27q-123 0 -221 18.5t-166.5 54t-105.5 88t-37 120.5q0 138 121 258q-37 -117 -37 -165q0 -140 193 -185q48 -11 123 -16.5t180 -5.5q59 0 128.5 4t151.5 12q226 22 226 66q0 50 -84 156l78 171q91 -110 91 -272v-21
q0 -10 -1 -21h151v-163zM738 -224l-78 -133l-192 111l74 134z" />
    <glyph glyph-name="tehmarbutafinalarabic" unicode="&#x629;" horiz-adv-x="606" arabic-form="final" 
d="M371 686q0 139 -10 146q-85 -91 -216 -127q1 -18 23 -39.5t52.5 -40.5t62.5 -32t53 -13q35 0 35 106zM502 1211l-179 114l76 120l177 -104zM73 1316l72 123l178 -114l-74 -118zM681 226h-134q-90 0 -120 43q-48 71 -48 212q0 31 4 47l-106 -107l-8 -1q-52 0 -146 61
q-101 65 -101 111q0 28 32 90q74 144 219 193q59 21 86 21v86l97 127v-619q0 -80 70 -96q24 -5 55 -5h100v-163z" />
    <glyph glyph-name="tehfinalarabic" unicode="&#x62a;" horiz-adv-x="1204" arabic-form="final" 
d="M1343 226h-212q-10 -37 -266 -72q-205 -27 -313 -27q-123 0 -221 18.5t-166.5 54t-105.5 88t-37 120.5q0 138 121 258q-37 -117 -37 -165q0 -140 193 -185q48 -11 123 -16.5t180 -5.5q59 0 128.5 4t151.5 12q226 22 226 66q0 50 -84 156l78 171q91 -110 91 -272v-21
q0 -10 -1 -21h151v-163zM343 766l81 125l185 -119l-73 -119zM792 655l-183 117l74 121l184 -110z" />
    <glyph glyph-name="thehfinalarabic" unicode="&#x62b;" horiz-adv-x="1204" arabic-form="final" 
d="M1343 226h-212q-10 -37 -266 -72q-205 -27 -313 -27q-123 0 -221 18.5t-166.5 54t-105.5 88t-37 120.5q0 138 121 258q-37 -117 -37 -165q0 -140 193 -185q48 -11 123 -16.5t180 -5.5q59 0 128.5 4t151.5 12q226 22 226 66q0 50 -84 156l78 171q91 -110 91 -272v-21
q0 -10 -1 -21h151v-163zM643 1047l-78 -143l-193 117l74 136zM333 766l74 134l186 -111l-73 -136zM784 676l-191 113l67 126l191 -113z" />
    <glyph glyph-name="jeemfinalarabic" unicode="&#x62c;" horiz-adv-x="983" arabic-form="final" 
d="M1122 226h-432q-148 0 -148 235q0 41 5 56q-189 -16 -319 -160q-129 -142 -129 -334q0 -349 486 -349q32 0 83 4t123 12q81 9 126.5 17t56.5 17q-73 -96 -238 -163q-150 -61 -286 -61q-96 0 -174 35.5t-132.5 100t-84 154.5t-29.5 200q0 245 215 556q-28 16 -61 16
q-71 0 -170 -100q50 155 74 186q54 73 182 73q20 0 61 -5.5t85.5 -12.5t85.5 -12.5t61 -5.5q138 0 271 48l-76 -196l-148 -16l-1 -26q0 -30 9 -50.5t31 -32.5t58.5 -17.5t91.5 -5.5h323v-163zM628 18l-82 -143l-197 128l86 136z" />
    <glyph glyph-name="shaddafathaarabic" unicode="&#xfc60;" horiz-adv-x="0" arabic-form="isolated" 
d="M418 1799q0 -34 -7.5 -66.5t-20 -58t-29 -40.5t-34.5 -15q-7 0 -18.5 5t-23 11t-19.5 9.5t-14 6.5q-6 -17 -42 -60q-45 -59 -97 -59q-85 0 -85 171q0 8 0.5 15t1.5 13l57 31q-6 -10 -6 -23q0 -114 47 -114q69 0 69 154q0 25 -7 26l55 30q-1 -3 -1 -13q0 -18 6 -38.5
t16.5 -37.5t24 -28.5t27.5 -11.5q41 0 41 88q0 79 -16 83l64 36q11 -13 11 -114zM388 2039l-347 -197v84l347 193v-80z" />
    <glyph glyph-name="shaddadammaarabic" unicode="&#xfc61;" horiz-adv-x="0" arabic-form="isolated" 
d="M377 2043l-28 -64q-32 6 -97 27q-96 -105 -241 -194l-37 71q2 -1 6 -1q16 0 105 68q44 33 70 54.5t35 32.5q-102 53 -102 121q0 25 19 54t46 53.5t58 41t55 16.5q88 0 88 -93q0 -59 -66 -161q15 -5 37.5 -11.5zM418 1799q0 -34 -7.5 -66.5t-20 -58t-29 -40.5t-34.5 -15
q-7 0 -18.5 5t-23 11t-19.5 9.5t-14 6.5q-6 -17 -42 -60q-45 -59 -97 -59q-85 0 -85 171q0 8 0.5 15t1.5 13l57 31q-6 -10 -6 -23q0 -114 47 -114q69 0 69 154q0 25 -7 26l55 30q-1 -3 -1 -13q0 -18 6 -38.5t16.5 -37.5t24 -28.5t27.5 -11.5q41 0 41 88q0 79 -16 83l64 36
q11 -13 11 -114zM266 2207q0 32 -32 32q-45 0 -45 -52q0 -38 45 -70q32 55 32 90z" />
    <glyph glyph-name="hahfinalarabic" unicode="&#x62d;" horiz-adv-x="983" arabic-form="final" 
d="M1122 226h-432q-148 0 -148 235q0 41 5 56q-189 -16 -319 -160q-129 -142 -129 -334q0 -349 486 -349q32 0 83 4t123 12q81 9 126.5 17t56.5 17q-73 -96 -238 -163q-150 -61 -286 -61q-96 0 -174 35.5t-132.5 100t-84 154.5t-29.5 200q0 245 215 556q-28 16 -61 16
q-71 0 -170 -100q50 155 74 186q54 73 182 73q20 0 61 -5.5t85.5 -12.5t85.5 -12.5t61 -5.5q138 0 271 48l-76 -196l-148 -16l-1 -26q0 -30 9 -50.5t31 -32.5t58.5 -17.5t91.5 -5.5h323v-163z" />
    <glyph glyph-name="khahfinalarabic" unicode="&#x62e;" horiz-adv-x="983" arabic-form="final" 
d="M1122 226h-432q-148 0 -148 235q0 41 5 56q-189 -16 -319 -160q-129 -142 -129 -334q0 -349 486 -349q32 0 83 4t123 12q81 9 126.5 17t56.5 17q-73 -96 -238 -163q-150 -61 -286 -61q-96 0 -174 35.5t-132.5 100t-84 154.5t-29.5 200q0 245 215 556q-28 16 -61 16
q-71 0 -170 -100q50 155 74 186q54 73 182 73q20 0 61 -5.5t85.5 -12.5t85.5 -12.5t61 -5.5q138 0 271 48l-76 -196l-148 -16l-1 -26q0 -30 9 -50.5t31 -32.5t58.5 -17.5t91.5 -5.5h323v-163zM558 1079l-88 -136l-189 125l85 139z" />
    <glyph glyph-name="dalfinalarabic" unicode="&#x62f;" horiz-adv-x="767" arabic-form="final" 
d="M905 226h-194q-11 -23 -175 -45q-136 -18 -207 -18q-95 0 -132 20q-50 29 -50 116q0 17 5.5 50t13.5 66t18 57.5t20 24.5l3 -1v-63q0 -64 13 -73q41 -23 141 -23q35 0 76 3t89 10q130 18 130 49q0 43 -58 205q-59 169 -83 176l95 197q90 -220 141 -588h154v-163z" />
    <glyph glyph-name="thalfinalarabic" unicode="&#x630;" horiz-adv-x="767" arabic-form="final" 
d="M905 226h-194q-11 -23 -175 -45q-136 -18 -207 -18q-95 0 -132 20q-50 29 -50 116q0 17 5.5 50t13.5 66t18 57.5t20 24.5l3 -1v-63q0 -64 13 -73q41 -23 141 -23q35 0 76 3t89 10q130 18 130 49q0 43 -58 205q-59 169 -83 176l95 197q90 -220 141 -588h154v-163z
M587 1268l-80 -143l-187 108l81 141z" />
    <glyph glyph-name="rehfinalarabic" unicode="&#x631;" horiz-adv-x="767" arabic-form="final" 
d="M905 226h-143q0 -162 -145 -311q-145 -150 -306 -150q-110 0 -202 77q-27 23 -64 62.5t-81 97.5q14 -15 45 -30q33 -16 81 -29q45 -12 81.5 -17t66.5 -6q275 0 432 297q11 22 11 43q0 116 -172 236l74 161q128 -99 168 -268h154v-163zM-37 4l1 -2z" />
    <glyph glyph-name="zainfinalarabic" unicode="&#x632;" horiz-adv-x="767" arabic-form="final" 
d="M905 226h-143q0 -162 -145 -311q-145 -150 -306 -150q-110 0 -202 77q-27 23 -64 62.5t-81 97.5q14 -15 45 -30q33 -16 81 -29q45 -12 81.5 -17t66.5 -6q275 0 432 297q11 22 11 43q0 116 -172 236l74 161q128 -99 168 -268h154v-163zM504 1082l-88 -137l-182 121l84 129
zM-37 4l1 -2z" />
    <glyph glyph-name="seenfinalarabic" unicode="&#x633;" horiz-adv-x="1698" arabic-form="final" 
d="M1837 226h-192l12 3q-66 -3 -123 -3q-111 0 -188 12t-125 35q-9 3 -9 5v1q-47 -39 -106 -47q-22 -3 -118 -3q0 -188 -186 -317q-164 -113 -362 -117l-38 -2q-7 0 -14 -0.5t-14 -0.5q-360 0 -360 266q0 100 63 242q59 131 134 217q-19 -26 -37 -67t-32 -86.5t-22.5 -89.5
t-8.5 -76q0 -247 320 -247q94 0 186 29.5t191 81.5q27 14 41 27t19 21q13 25 13 73q0 39 -9.5 84t-25.5 88t-38 79.5t-46 57.5l132 156q32 -62 54 -121t35 -117q8 -32 104 -32q80 0 101 24q19 20 19 105q0 33 -8 46l118 118q1 -17 1.5 -44.5t0.5 -64.5q-1 -19 -3 -42.5
t-10 -52.5l-15 -59q0 -30 114 -30q45 0 74 2.5t46 8.5t23.5 17t6.5 27q0 92 -48 129l141 125q5 -5 10 -27.5t9 -55.5t7 -75t3 -86q0 -17 -0.5 -30t-1.5 -24h162v-163z" />
    <glyph glyph-name="sheenfinalarabic" unicode="&#x634;" horiz-adv-x="1725" arabic-form="final" 
d="M1837 226h-182q-3 0 -3 1l1 1q-36 -2 -69.5 -3.5t-65.5 -1.5q-94 0 -168.5 12.5t-128.5 37.5q-9 3 -9 5v1q-47 -39 -106 -47q-22 -3 -118 -3q0 -188 -186 -317q-164 -113 -362 -117l-38 -2q-7 0 -14 -0.5t-14 -0.5q-360 0 -360 266q0 100 63 242q59 131 134 217
q-19 -26 -37 -67t-32 -86.5t-22.5 -89.5t-8.5 -76q0 -247 320 -247q90 0 187.5 28.5t188.5 82.5q26 15 41 26t20 22q13 29 13 73q0 39 -9.5 84t-25.5 88t-38 79.5t-46 57.5l132 156q32 -62 54 -121t35 -117q8 -32 104 -32q41 0 64.5 4.5t36 18.5t16 39t3.5 67q0 33 -8 46
l118 118q1 -17 1.5 -44.5t0.5 -64.5q-1 -19 -3 -42.5t-10 -52.5l-15 -59q0 -30 114 -30q45 0 74 2.5t46 8.5t23.5 17t6.5 27q0 92 -48 129l141 125q5 -5 10 -27.5t9 -55.5t7 -75t3 -86q0 -17 -0.5 -30t-1.5 -24h162v-163zM1038 952l93 121l165 -118l-93 -123zM1364 1211
l-91 -118l-158 114l88 121zM1458 841l-162 114l89 118l159 -107zM1655 230l-2 -2q2 1 4 1q-1 1 -2 1z" />
    <glyph glyph-name="sadfinalarabic" unicode="&#x635;" horiz-adv-x="2086" arabic-form="final" 
d="M2224 226h-1236q0 -190 -186 -316q-162 -111 -362 -115l-38 -2q-7 0 -14 -0.5t-14 -0.5q-360 0 -360 266q0 100 63 242q59 131 134 217q-19 -26 -37 -67t-32 -86.5t-22.5 -89.5t-8.5 -76q0 -247 320 -247q90 0 187.5 28.5t188.5 82.5q26 15 41 26t20 22q13 29 13 73
q0 39 -9.5 84t-25.5 88t-38 79.5t-46 57.5l132 156q30 -30 61 -123q29 -85 29 -125q0 -3 -0.5 -6t-0.5 -5h91q36 0 148 89q165 132 218 167q135 90 223 90q86 0 230 -99q151 -104 167 -185q3 -16 6 -62h158v-163zM1951 399q0 40 -135 110q-127 66 -181 66q-55 0 -220 -80
q-169 -82 -169 -119q11 -5 108.5 -9.5t285.5 -4.5q311 0 311 37z" />
    <glyph glyph-name="dadfinalarabic" unicode="&#x636;" horiz-adv-x="2066" arabic-form="final" 
d="M2224 226h-1236q0 -190 -186 -316q-162 -111 -362 -115l-38 -2q-7 0 -14 -0.5t-14 -0.5q-360 0 -360 266q0 100 63 242q59 131 134 217q-19 -26 -37 -67t-32 -86.5t-22.5 -89.5t-8.5 -76q0 -247 320 -247q90 0 187.5 28.5t188.5 82.5q26 15 41 26t20 22q13 29 13 73
q0 39 -9.5 84t-25.5 88t-38 79.5t-46 57.5l132 156q30 -30 61 -123q29 -85 29 -125q0 -3 -0.5 -6t-0.5 -5h91q36 0 148 89q165 132 218 167q135 90 223 90q86 0 230 -99q151 -104 167 -185q3 -16 6 -62h158v-163zM1951 399q0 40 -135 110q-127 66 -181 66q-55 0 -220 -80
q-169 -82 -169 -119q11 -5 108.5 -9.5t285.5 -4.5q311 0 311 37zM1718 1131l-78 -144l-199 118l86 145z" />
    <glyph glyph-name="tahfinalarabic" unicode="&#x637;" horiz-adv-x="1122" arabic-form="final" 
d="M1261 226h-1211l-54 163q25 -5 75 -5q172 0 249 53v722l-36 180l115 145l12 -175l81 -84l-70 -141v-585q10 24 128 115q146 112 256 112q36 0 70 -15q157 -66 192 -110q20 -25 28.5 -78t8.5 -134h156v-163zM1042 410q0 67 -119 114q-93 37 -174 37q-44 0 -159 -68
q-118 -70 -118 -105q0 -17 229 -17q341 0 341 39z" />
    <glyph glyph-name="zahfinalarabic" unicode="&#x638;" horiz-adv-x="1122" arabic-form="final" 
d="M1261 226h-1211l-54 163q25 -5 75 -5q172 0 249 53v722l-36 180l115 145l12 -175l81 -84l-70 -141v-585q10 24 128 115q146 112 256 112q36 0 70 -15q157 -66 192 -110q20 -25 28.5 -78t8.5 -134h156v-163zM1042 410q0 67 -119 114q-93 37 -174 37q-44 0 -159 -68
q-118 -70 -118 -105q0 -17 229 -17q341 0 341 39zM951 1093l-82 -144l-199 115l75 140z" />
    <glyph glyph-name="ainfinalarabic" unicode="&#x639;" horiz-adv-x="883" arabic-form="final" 
d="M1022 226h-284q-253 0 -356 190q-106 -43 -190 -205q-79 -151 -79 -276q0 -74 32.5 -132t91 -98t140 -61.5t180.5 -21.5q216 0 310 52q-186 -202 -443 -202q-87 0 -159.5 33.5t-124.5 92.5t-81 140t-29 177q0 181 109 384q91 171 145 200l-139 29q0 6 5.5 24.5t17.5 48.5
q39 100 94 149.5t124 49.5q36 0 72 -12.5t64 -33.5t45.5 -50t17.5 -62q0 -75 -74 -167q53 -42 102 -63q30 -12 108.5 -17.5t206.5 -6.5q23 0 46 0.5t48 0.5v-163z" />
    <glyph glyph-name="ghainfinalarabic" unicode="&#x63a;" horiz-adv-x="883" arabic-form="final" 
d="M1022 226h-284q-253 0 -356 190q-106 -43 -190 -205q-79 -151 -79 -276q0 -74 32.5 -132t91 -98t140 -61.5t180.5 -21.5q216 0 310 52q-186 -202 -443 -202q-87 0 -159.5 33.5t-124.5 92.5t-81 140t-29 177q0 181 109 384q91 171 145 200l-139 29q0 6 5.5 24.5t17.5 48.5
q39 100 94 149.5t124 49.5q36 0 72 -12.5t64 -33.5t45.5 -50t17.5 -62q0 -75 -74 -167q53 -42 102 -63q30 -12 108.5 -17.5t206.5 -6.5q23 0 46 0.5t48 0.5v-163zM542 1181l-92 -142l-205 125l91 142z" />
    <glyph glyph-name="fehfinalarabic" unicode="&#x641;" horiz-adv-x="1473" arabic-form="final" 
d="M1609 226h-202q0 -1 -29 -3.5t-77.5 -5.5l-111.5 -7t-131.5 -7.5l-137.5 -7l-129 -6.5t-106.5 -4.5t-70.5 -1.5q-463 0 -534 113q-69 110 -69 211q0 110 94 226q-18 -145 -18 -160q0 -95 74 -152q85 -65 528 -65q103 0 313 9q264 11 274 24q-30 23 -106 48
q-44 15 -73.5 31t-47 35.5t-25 43.5t-7.5 56q0 86 89 214q95 135 172 135q86 0 140 -179q23 -75 33 -151t11 -155q0 -53 -7 -78h154v-163zM1383 517q0 53 -51 153q-56 110 -103 110q-11 0 -30 -14.5t-38 -35t-34 -42t-19 -35.5l272 -147q3 3 3 11zM1335 1222l-77 -136
l-198 117l82 136z" />
    <glyph glyph-name="qaffinalarabic" unicode="&#x642;" horiz-adv-x="1031" arabic-form="final" 
d="M1170 226h-158l1 -21q1 -7 1 -14v-13q0 -191 -140 -279q-262 -163 -481 -163q-85 0 -153.5 25.5t-117.5 73.5t-75.5 116.5t-26.5 153.5q0 80 32 194q36 122 84 172q-56 -107 -56 -290q0 -269 244 -269q197 0 353 44q239 66 239 213q0 24 -11 57q-40 -9 -95 -9
q-242 0 -242 187q0 93 58 218q68 144 148 144q76 0 157 -153q69 -129 69 -209q0 -10 -1 -15h171v-163zM864 952l-173 115l74 131l182 -110zM438 1051l77 133l176 -117l-69 -122zM890 397q0 40 -61 111q-61 72 -99 72q-10 0 -20.5 -10.5t-19 -27t-13.5 -36t-5 -37.5
q0 -85 131 -85q57 0 87 10v3z" />
    <glyph glyph-name="kaffinalarabic" unicode="&#x643;" horiz-adv-x="1003" arabic-form="final" 
d="M648 809q0 -201 -247 -201q-28 0 -42 6q199 82 199 109q0 8 -15 10.5t-35 3.5l-39 3q-19 2 -28 8q-19 13 -19 52q0 42 56 127q59 90 96 90h2l-45.5 -87t-30.5 -63q7 -7 28 -13t44.5 -10.5t44 -7t26.5 -2.5q5 -7 5 -25zM869 412v967l126 105v-1095h147v-163h-209
q-184 -69 -387 -69q-524 0 -524 262q0 95 65 208q53 92 67 92l2 -1q0 -12 -3.5 -37.5t-8 -54.5l-8.5 -55.5t-4 -41.5q0 -58 4 -73q35 -125 400 -125q70 0 164 12q56 8 94 18t59 21q11 6 16 30z" />
    <glyph glyph-name="lamfinalarabic" unicode="&#x644;" horiz-adv-x="893" arabic-form="final" 
d="M1031 226h-212q-20 -143 -183 -245q-148 -93 -303 -93q-81 0 -148 27.5t-115 76.5t-74 117t-26 149q0 119 45 234q21 54 36.5 77t25.5 23q0 -16 -4 -48t-9.5 -67.5t-9.5 -67.5t-4 -49q0 -168 102 -245q113 -84 220 -84q44 0 91.5 18t90 47t77 67t52.5 78v1083l136 160
v-1095h212v-163z" />
    <glyph glyph-name="meemfinalarabic" unicode="&#x645;" horiz-adv-x="765" arabic-form="final" 
d="M904 226h-192q-16 0 -51 1t-73.5 2.5t-74 2.5t-52.5 1q-332 0 -333 -55l8 -31q3 -10 11 -43.5l21 -91.5q27 -119 41.5 -214.5t13.5 -169.5q0 -92 -67 -208q-14 153 -36 287.5t-52 252.5q-20 81 -31 137t-11 88q0 113 69 152q39 22 175 41q120 18 172 18q19 0 28 -3
l-143 160l-186 -97l2 61q1 29 93 119t123 90q46 0 140 -124q116 -151 205 -213h200v-163z" />
    <glyph glyph-name="noonfinalarabic" unicode="&#x646;" horiz-adv-x="1003" arabic-form="final" 
d="M1142 226h-154q0 -190 -186 -316q-162 -111 -362 -115l-38 -2q-7 0 -14 -0.5t-14 -0.5q-360 0 -360 266q0 100 63 242q59 131 134 217q-19 -26 -37 -67t-32 -86.5t-22.5 -89.5t-8.5 -76q0 -247 320 -247q90 0 187.5 28.5t188.5 82.5q26 15 41 26t20 22q13 29 13 73
q0 39 -9.5 84t-25.5 88t-38 79.5t-46 57.5l132 156q29 -28 60 -123q31 -92 31 -136h157v-163zM628 995l-82 -141l-195 123l84 135zM985 387v2h-2z" />
    <glyph glyph-name="hehfinalarabic" unicode="&#x647;" horiz-adv-x="606" arabic-form="final" 
d="M681 226h-134q-90 0 -120 43q-48 71 -48 212q0 31 4 47l-106 -107l-8 -1q-52 0 -146 61q-101 65 -101 111q0 28 32 90q74 144 219 193q59 21 86 21v86l97 127v-619q0 -80 70 -96q23 -2 57 -1.5t80 -2.5l18 -1v-163zM371 686q0 139 -10 146q-85 -91 -216 -127
q1 -18 23 -39.5t52.5 -40.5t62.5 -32t53 -13q35 0 35 106z" />
    <glyph glyph-name="wawfinalarabic" unicode="&#x648;" horiz-adv-x="734" arabic-form="final" 
d="M869 226h-169q-9 -88 -48.5 -166t-101 -135.5t-141 -91t-168.5 -33.5q-124 0 -236 98q-110 97 -133 223q37 -69 149 -133q113 -65 193 -65q66 0 130 23t117.5 63t93 94.5t55.5 118.5q-12 -3 -23 -3q-52 0 -98.5 17.5t-81 48t-54.5 71.5t-20 88q0 72 69 190
q75 128 140 128q85 0 136 -150q39 -112 39 -223h152v-163zM631 410q0 27 -9.5 54.5t-26 50t-38.5 36.5t-47 14q-15 0 -28.5 -9t-24 -22.5t-17 -29.5t-6.5 -31q0 -16 17.5 -31.5t43.5 -27t55.5 -18.5t53.5 -7q27 0 27 21z" />
    <glyph glyph-name="alefmaksurafinalarabic" unicode="&#x649;" horiz-adv-x="1101" arabic-form="final" 
d="M1239 226q-222 0 -264 -3q-241 -12 -241 -67q0 -21 130 -63q108 -34 138 -34h8l-36 -216q-5 -36 -172 -130q-202 -113 -384 -113q-84 0 -157 23.5t-127 65.5t-85 101t-31 130q0 131 77 302q66 145 88 145h1l2 -7q-7 -21 -21.5 -60.5t-28 -87t-24 -96.5t-10.5 -90
q0 -227 297 -227q78 0 226 30q178 36 178 72q0 12 -95 51q-96 39 -97 55q-1 8 -1.5 18.5t-0.5 24.5q0 339 474 339h156v-163z" />
    <glyph glyph-name="yehfinalarabic" unicode="&#x64a;" horiz-adv-x="1101" arabic-form="final" 
d="M1239 226q-222 0 -264 -3q-241 -12 -241 -67q0 -21 130 -63q108 -34 138 -34h8l-36 -216q-5 -36 -172 -130q-202 -113 -384 -113q-84 0 -157 23.5t-127 65.5t-85 101t-31 130q0 131 77 302q66 145 88 145h1l2 -7q-7 -21 -21.5 -60.5t-28 -87t-24 -96.5t-10.5 -90
q0 -227 297 -227q78 0 226 30q178 36 178 72q0 12 -95 51q-96 39 -97 55q-1 8 -1.5 18.5t-0.5 24.5q0 339 474 339h156v-163zM615 -727l-181 116l73 122l182 -106zM184 -627l72 130l178 -114l-73 -121z" />
    <glyph glyph-name="shaddadammatanarabic" unicode="&#xfc5e;" horiz-adv-x="0" arabic-form="isolated" 
d="M428 2281q0 -57 -40 -137l30 -7v-100l-30 10.5l-41 15.5q-104 -113 -295 -180l-38 67l3 -1q17 0 36 8t35 21.5t26.5 30t10.5 33.5q0 26 -19 55q-58 0 -91 -45l-8 52q63 54 116 54q19 0 19 -38q0 -9 -1.5 -26t-1.5 -26q0 -44 29 -44q17 0 109 76q-70 48 -70 110
q0 24 16.5 54.5t41 58t53 46.5t53.5 19q57 -36 57 -107zM283 1607q-19 12 -32 12l-10 -2l-16 -24.5l-27 -41.5q-31 -49 -85 -49q-85 0 -85 172q0 8 0.5 14.5t1.5 13.5l65 34q-1 -4 -1 -15q0 -109 49 -109q54 0 54 113q0 34 -7 51l72 32q-3 -4 -3 -14q0 -97 50 -97
q45 0 45 75q0 66 -18 70l71 39q11 -8 11 -111q0 -34 -7 -66t-19.5 -57.5t-29 -41t-35.5 -15.5zM368 2249q0 37 -35 37q-47 0 -47 -54q0 -51 46 -70q36 51 36 87z" />
    <glyph glyph-name="yehhamzaaboveinitialarabic" unicode="&#x626;" horiz-adv-x="558" arabic-form="initial" 
d="M552 373q0 -147 -41 -147h-525v163h436q13 0 13 23q0 17 -10.5 49t-26 63.5t-32 55t-28.5 23.5l75 177q52 -23 98 -185q41 -144 41 -222zM446 1229l-24 -78q-57 -22 -94 -38.5t-55 -28.5q-4 -1 -126 -102q-1 2 -1 4q0 3 -1 5q0 9 4 23t10 28t12.5 25.5t12.5 16.5
q-45 32 -54 41q-24 24 -24 61q0 39 18.5 76.5t50 66.5t72 46.5t85.5 17.5q29 0 50 -10l-25 -66q-16 6 -41 6q-28 0 -54.5 -8t-47.5 -22t-33.5 -33t-12.5 -42q0 -40 94 -56z" />
    <glyph glyph-name="dadinitialarabic" unicode="&#x636;" horiz-adv-x="1742" arabic-form="initial" 
d="M1737 462q0 -236 -69 -236h-1055q-171 0 -223 61q-30 -61 -404 -61v163q75 -3 135 -3q195 0 238 33q1 7 1.5 16.5t0.5 20.5q0 59 -10 86l126 140q5 -26 8 -51t3 -49q0 -89 -29 -167q194 -27 205 -27q103 0 358 192q256 193 345 193q14 0 28.5 -3t29.5 -11
q79 -36 130 -63.5t74 -45.5q108 -79 108 -188zM1641 442q0 29 -145 98q-139 66 -184 66q-54 0 -188 -84q-133 -82 -162 -133l223 -1q229 -1 342.5 15t113.5 39zM1425 1147l-88 -140l-195 129l91 139z" />
    <glyph glyph-name="dotlessyehinitialarabic" unicode="&#x6cc;" horiz-adv-x="558" arabic-form="initial" 
d="M552 373q0 -147 -41 -147h-525v163h436q13 0 13 23q0 17 -10.5 49t-26 63.5t-32 55t-28.5 23.5l75 177q52 -23 98 -185q41 -144 41 -222zM22 -194l72 125l171 -107l-68 -122zM434 -283l-169 107l64 114l171 -102z" />
    <glyph glyph-name="dotlessyehmedialarabic" unicode="&#x6cc;" horiz-adv-x="558" arabic-form="medial" 
d="M697 226h-711v163h436q13 0 13 23q0 17 -10.5 49t-26 63.5t-32 55t-28.5 23.5l78 180q56 -64 96 -186q40 -117 40 -208h145v-163zM22 -194l72 125l171 -107l-68 -122zM434 -283l-169 107l64 114l171 -102z" />
    <glyph glyph-name="gafmedialarabic" unicode="&#x6af;" horiz-adv-x="834" arabic-form="medial" 
d="M972 226h-1017v163h578q119 0 119 16q0 28 -213 224q-212 196 -244 196q-7 -8 -17 -57l-44 40l-60 56q-63 62 -63 120q0 59 59 157q31 52 747 343l-83 -203l-591 -241l36.5 -29.5l61.5 -48.5q153 -120 314 -269q106 -98 170.5 -174t91.5 -130h155v-163zM659 1527
l-639 -284l-23 43l641 286z" />
    <glyph glyph-name="sadinitialarabic" unicode="&#x635;" horiz-adv-x="1737" arabic-form="initial" 
d="M1737 462q0 -236 -69 -236h-1055q-171 0 -223 61q-30 -61 -404 -61v163q38 -1 72 -1.5t65 -0.5q192 0 236 32q1 7 1.5 16.5t0.5 20.5q0 57 -10 86l126 140q5 -26 8 -51t3 -49q0 -89 -29 -167q194 -27 205 -27q103 0 358 192q256 193 345 193q14 0 28.5 -3t29.5 -11
q78 -35 128.5 -62.5t75.5 -46.5q108 -81 108 -188zM1641 442q0 29 -145 98q-139 66 -184 66q-54 0 -188 -84q-133 -82 -162 -133l223 -1q229 -1 342.5 15t113.5 39z" />
    <glyph glyph-name="pehinitialarabic" unicode="&#x67e;" horiz-adv-x="558" arabic-form="initial" 
d="M552 373q0 -147 -41 -147h-525v163h436q13 0 13 23q0 17 -10.5 49t-26 63.5t-32 55t-28.5 23.5l75 177q52 -23 98 -185q41 -144 41 -222zM22 -149l94 121l165 -117l-92 -124zM470 -391l-91 -119l-161 114l91 122zM440 -259l-159 114l87 117l158 -107z" />
    <glyph glyph-name="tchehinitialarabic" unicode="&#x686;" horiz-adv-x="1157" arabic-form="initial" 
d="M1155 226h-1169v163l806 2q0 8 -17.5 29.5t-46 47.5t-64 52t-70.5 44q-98 52 -183 52q-65 0 -221 -63q64 118 95 152q61 67 161 67q149 0 351 -178q70 -61 159 -112t199 -93v-163zM292 -107l94 119l166 -118l-93 -123zM740 -350l-91 -119l-161 114l91 122zM712 -220
l-160 114l89 118l156 -106z" />
    <glyph glyph-name="hehinitialaltonearabic" unicode="&#x6c1;" horiz-adv-x="558" arabic-form="initial" 
d="M552 373q0 -147 -41 -147h-525v163h436q13 0 13 23q0 17 -10.5 49t-26 63.5t-32 55t-28.5 23.5l75 177q52 -23 98 -185q41 -144 41 -222zM422 139l-2 -41q-44 -43 -65.5 -87t-19.5 -94l1 -29q65 -41 65 -91q0 -20 -6.5 -37.5t-17 -30t-25 -20t-30.5 -7.5q-86 0 -86 131
q0 145 186 306z" />
    <glyph glyph-name="vehinitialarabic" unicode="&#x6a4;" horiz-adv-x="678" arabic-form="initial" 
d="M670 384q0 -130 -16 -149q-6 -9 -80 -9h-588v163h493l-170 72q-93 54 -93 142q0 86 90 215q95 134 175 134q108 0 157 -240q17 -78 24.5 -159t7.5 -169zM581 518q0 53 -52 153q-57 108 -102 108q-13 0 -32.5 -15t-38 -35.5t-33 -41.5t-17.5 -34l270 -147q5 3 5 12z
M145 1155l93 120l165 -119l-92 -122zM472 1413l-90 -118l-162 112l91 125zM565 1040l-162 116l89 119l157 -109z" />
    <glyph glyph-name="gafinitialarabic" unicode="&#x6af;" horiz-adv-x="842" arabic-form="initial" 
d="M821 347q0 -76 -24 -112q-6 -9 -93 -9h-718v163h547q119 0 119 16q0 28 -213 224q-212 196 -244 196q-7 -8 -17 -57l-44 40l-60 56q-63 62 -63 120q0 60 59 157q33 52 747 343l-83 -203l-591 -241q14 -13 38.5 -32.5l59.5 -45.5q201 -153 341 -289.5t221 -257.5
q18 -27 18 -68zM659 1488l-639 -285l-23 45l641 286z" />
    <glyph glyph-name="noonghunnafinalarabic" unicode="&#x6ba;" horiz-adv-x="1003" arabic-form="final" 
d="M1142 226h-154q0 -190 -186 -316q-162 -111 -362 -115l-38 -2q-7 0 -14 -0.5t-14 -0.5q-360 0 -360 266q0 100 63 242q59 131 134 217q-19 -26 -37 -67t-32 -86.5t-22.5 -89.5t-8.5 -76q0 -247 320 -247q90 0 187.5 28.5t188.5 82.5q26 15 41 26t20 22q13 29 13 73
q0 39 -9.5 84t-25.5 88t-38 79.5t-46 57.5l132 156q29 -28 60 -123q31 -92 31 -136h157v-163zM985 387v2h-2z" />
    <glyph glyph-name="pehmedialarabic" unicode="&#x67e;" horiz-adv-x="558" arabic-form="medial" 
d="M697 226h-711v163h436q13 0 13 23q0 17 -10.5 49t-26 63.5t-32 55t-28.5 23.5l78 180q56 -64 96 -186q40 -117 40 -208h145v-163zM22 -149l94 121l165 -117l-92 -124zM470 -391l-91 -119l-161 114l91 122zM440 -259l-159 114l87 117l158 -107z" />
    <glyph glyph-name="ttehmedialarabic" unicode="&#x679;" horiz-adv-x="558" arabic-form="medial" 
d="M697 226h-711v163h436q13 0 13 23q0 17 -10.5 49t-26 63.5t-32 55t-28.5 23.5l78 180q56 -64 96 -186q40 -117 40 -208h145v-163zM470 1029q0 -13 -7.5 -16t-16.5 -3h-370l-22 61q11 -3 44 -3q54 0 80 20v271l-17 67l43 55l7 -66l30 -32l-27 -52v-219q83 83 145 83
q15 0 30.5 -5.5t28.5 -13t22 -14t11 -9.5q19 -19 19 -70v-54zM438 1077q0 12 -10.5 22t-26.5 18t-35 12.5t-35 4.5q-53 0 -106 -63q39 -4 69.5 -5.5t52.5 -1.5q91 0 91 13z" />
    <glyph glyph-name="tchehmedialarabic" unicode="&#x686;" horiz-adv-x="1157" arabic-form="medial" 
d="M1294 226h-1308v163l806 2q0 9 -18 30t-46.5 47t-64 52t-69.5 44q-97 52 -183 52q-65 0 -221 -63q64 118 95 152q61 67 161 67q149 0 351 -178q35 -30 75.5 -61t89.5 -62q129 -82 182 -82h150v-163zM292 -107l94 119l166 -118l-93 -123zM740 -350l-91 -119l-161 114
l91 122zM712 -220l-160 114l89 118l156 -106z" />
    <glyph glyph-name="hehmedialaltonearabic" unicode="&#x6c1;" horiz-adv-x="797" arabic-form="medial" 
d="M936 226q-12 0 -36 0.5t-51 1.5t-51.5 1.5t-36.5 0.5q-215 0 -311 -127q-62 -85 -62 -164q0 -11 3 -32t7 -44t7 -44t3 -31q0 -20 -8.5 -42t-23.5 -41t-34 -31t-40 -12q-18 0 -32 5t-26 22t-21.5 50.5t-18.5 90.5q-8 55 -12.5 103.5t-4.5 91.5q0 149 47 269
q-107 -68 -248 -68v163q157 0 263 27q5 2 25.5 11.5t43.5 21.5l59 31q36 0 36 -29q0 -15 -46 -103q-46 -87 -49 -129q-2 -26 -3 -46.5t-1 -36.5q0 -51 11 -51q13 0 61 78q62 98 114 143q98 83 278 83h158v-163z" />
    <glyph glyph-name="noonghunnaarabic" unicode="&#x6ba;" horiz-adv-x="1003" arabic-form="isolated" 
d="M988 294v-65q0 -192 -185 -318q-163 -112 -363 -116l-38 -2q-7 0 -14 -0.5t-14 -0.5q-360 0 -360 266q0 100 63 242q59 131 134 217q-19 -26 -37 -66.5t-32 -85.5t-22.5 -89.5t-8.5 -77.5q0 -247 320 -247q90 0 187.5 28.5t188.5 82.5q26 15 41 26t20 22q13 29 13 73
q0 39 -9.5 84t-25.5 88t-38 79.5t-46 57.5l132 156q94 -124 94 -354z" />
    <glyph glyph-name="vehmedialarabic" unicode="&#x6a4;" horiz-adv-x="678" arabic-form="medial" 
d="M817 226h-831v163h491q-32 23 -107 48q-44 15 -73.5 31.5t-47.5 36t-25.5 44.5t-7.5 56q0 86 90 213q95 134 173 134q85 0 144 -194q48 -159 48 -310q0 -39 -6 -59h152v-163zM579 518q0 50 -53 153q-55 109 -103 109q-13 0 -32 -15t-37.5 -35.5t-33 -42t-17.5 -34.5
l271 -147q5 3 5 12zM145 1155l93 120l165 -119l-92 -122zM472 1413l-90 -118l-162 112l91 125zM565 1040l-162 116l89 119l157 -109z" />
    <glyph glyph-name="pehfinalarabic" unicode="&#x67e;" horiz-adv-x="1204" arabic-form="final" 
d="M1343 226h-212q-10 -37 -266 -72q-205 -27 -313 -27q-123 0 -221 18.5t-166.5 54t-105.5 88t-37 120.5q0 138 121 258q-37 -117 -37 -165q0 -140 193 -185q48 -11 123 -16.5t180 -5.5q59 0 128.5 4t151.5 12q226 22 226 66q0 50 -84 156l78 171q91 -110 91 -272v-21
q0 -10 -1 -21h151v-163zM343 -167l92 120l166 -119l-92 -123zM791 -412l-91 -118l-160 113l88 123zM762 -281l-161 115l89 119l157 -109z" />
    <glyph glyph-name="ttehfinalarabic" unicode="&#x679;" horiz-adv-x="1203" arabic-form="final" 
d="M1343 226h-212q-10 -37 -266 -72q-205 -27 -313 -27q-123 0 -221 18.5t-166.5 54t-105.5 88t-37 120.5q0 138 121 258q-37 -117 -37 -165q0 -140 193 -185q48 -11 123 -16.5t180 -5.5q59 0 128.5 4t151.5 12q226 22 226 66q0 50 -84 156l78 171q91 -110 91 -272v-21
q0 -10 -1 -21h151v-163zM799 700q0 -19 -25 -19h-369l-22 60q20 -5 37 -5q55 0 84 23v273l-14 65l43 56l4 -65l33 -31l-28 -55v-219q80 86 147 86q14 0 29 -6t28 -13.5t22 -14.5t11 -10q20 -23 20 -70v-55zM767 748q0 11 -10 21t-25.5 18t-35 13t-37.5 5q-10 0 -25.5 -6.5
t-31.5 -16t-29.5 -20.5t-18.5 -21q74 -6 105 -6q48 0 78 4t30 9z" />
    <glyph glyph-name="tchehfinalarabic" unicode="&#x686;" horiz-adv-x="983" arabic-form="final" 
d="M1122 226h-432q-148 0 -148 235q0 41 5 56q-189 -16 -319 -160q-129 -142 -129 -334q0 -349 486 -349q32 0 83 4t123 12q81 9 126.5 17t56.5 17q-73 -96 -238 -163q-150 -61 -286 -61q-96 0 -174 35.5t-132.5 100t-84 154.5t-29.5 200q0 245 215 556q-28 16 -61 16
q-71 0 -170 -100q50 155 74 186q54 73 182 73q20 0 61 -5.5t85.5 -12.5t85.5 -12.5t61 -5.5q138 0 271 48l-76 -196l-148 -16q-1 -7 -1 -14v-12q0 -30 9 -50.5t31 -32.5t58.5 -17.5t91.5 -5.5h323v-163zM254 83l91 121l166 -119l-91 -123zM672 -30l-161 115l88 119l159 -108
zM700 -160l-90 -109l-160 105l90 121z" />
    <glyph glyph-name="hehfinalaltonearabic" unicode="&#x6c1;" horiz-adv-x="606" arabic-form="final" 
d="M681 226h-134q-90 0 -120 43q-48 71 -48 212q0 31 4 47l-106 -107l-8 -1q-52 0 -146 61q-101 65 -101 111q0 28 32 90q74 144 219 193q59 21 86 21v86l97 127v-619q0 -80 70 -96q24 -5 55 -5h100v-163zM371 686q0 139 -10 146q-85 -91 -216 -127q1 -18 23 -39.5
t52.5 -40.5t62.5 -32t53 -13q35 0 35 106z" />
    <glyph glyph-name="vehfinalarabic" unicode="&#x6a4;" horiz-adv-x="1473" arabic-form="final" 
d="M1609 226h-204q-25 0 -63 -3.5t-76 -7.5l-68.5 -7.5t-40.5 -3.5q-141 -9 -267.5 -14t-241.5 -5q-472 0 -532 71q-102 117 -102 245q0 96 91 232q-18 -142 -18 -160q0 -95 74 -152q83 -65 524 -65q104 0 311 9q261 11 273 24q-245 83 -245 223q0 84 87 205q90 126 169 126
q84 0 138 -188q23 -76 33 -151.5t10 -151.5q0 -45 -6 -63h154v-163zM1383 517q0 53 -51 153q-56 110 -103 110q-11 0 -30 -14.5t-38 -35t-34 -42t-19 -35.5l272 -147q3 3 3 11zM964 1147l93 121l166 -119l-92 -124zM1291 1404l-91 -118l-158 114l89 121zM1385 1034l-162 115
l89 119l159 -109z" />
    <glyph glyph-name="ddalfinalarabic" unicode="&#x688;" horiz-adv-x="736" arabic-form="final" 
d="M905 226h-194q-11 -23 -175 -45q-136 -18 -207 -18q-95 0 -132 20q-50 29 -50 116q0 17 5.5 50t13.5 66t18 57.5t20 24.5l3 -1v-63q0 -64 13 -73q41 -23 141 -23q35 0 76 3t89 10q130 18 130 49q0 43 -58 205q-59 169 -83 176l95 197q90 -220 141 -588h154v-163z
M663 1166q0 -8 -6 -16t-16 -8h-372l-22 62q81 0 124 18v273l-17 68l45 54l6 -65l29 -32l-27 -53v-219q83 83 145 83q15 0 30 -5.5t28 -12t21.5 -13.5t11.5 -10q20 -23 20 -71v-53zM631 1214q0 12 -10.5 22t-26 17.5t-35 12t-37.5 4.5q-9 0 -25 -7t-32 -17.5t-29.5 -21.5
t-17.5 -20q74 -6 104 -6q109 0 109 16z" />
    <glyph glyph-name="rrehfinalarabic" unicode="&#x691;" horiz-adv-x="767" arabic-form="final" 
d="M905 226h-143q0 -162 -145 -311q-145 -150 -306 -150q-110 0 -202 77q-27 23 -64 62.5t-81 97.5q14 -15 45 -30q33 -16 81 -29q45 -12 81.5 -17t66.5 -6q275 0 432 297q11 22 11 43q0 116 -172 236l74 161q128 -99 168 -268h154v-163zM633 880q0 -10 -6.5 -16.5
t-17.5 -6.5h-371l-20 62q84 0 120 18v272l-13 68l43 54l4 -65l33 -33l-28 -52v-219q80 83 145 83q15 0 30.5 -5.5t28 -12t21.5 -13.5t12 -10q19 -20 19 -71v-53zM602 927q0 11 -10 21t-26.5 18t-36.5 13t-40 5q-9 0 -24.5 -7t-31.5 -16.5t-29 -21t-16 -20.5l104 -4
q110 0 110 12z" />
    <glyph glyph-name="jehfinalarabic" unicode="&#x698;" horiz-adv-x="767" arabic-form="final" 
d="M905 226h-143q0 -162 -145 -311q-145 -150 -306 -150q-110 0 -202 77q-27 23 -64 62.5t-81 97.5q14 -15 45 -30q33 -16 81 -29q45 -12 81.5 -17t66.5 -6q275 0 432 297q11 22 11 43q0 116 -172 236l74 161q128 -99 168 -268h154v-163zM182 952l91 121l165 -118l-93 -123z
M507 1211l-91 -118l-160 114l89 121zM599 841l-161 114l88 118l159 -107z" />
    <glyph glyph-name="ttehinitialarabic" unicode="&#x679;" horiz-adv-x="558" arabic-form="initial" 
d="M552 373q0 -147 -41 -147h-525v163h436q13 0 13 23q0 17 -10.5 49t-26 63.5t-32 55t-28.5 23.5l75 177q52 -23 98 -185q41 -144 41 -222zM550 1032q0 -10 -6.5 -16.5t-17.5 -6.5h-371l-20 62q84 0 120 18v272l-13 68l43 54l4 -65l33 -33l-28 -52v-219q80 83 145 83
q15 0 30.5 -5.5t28 -12t21.5 -13.5t12 -10q19 -20 19 -71v-53zM519 1079q0 11 -10 21t-26.5 18t-36.5 13t-40 5q-9 0 -24.5 -7t-31.5 -16.5t-29 -21t-16 -20.5l104 -4q110 0 110 12v0z" />
    <glyph glyph-name="hamzaarabic" unicode="&#x621;" horiz-adv-x="590" arabic-form="isolated" 
d="M468 490l-46 -117q-126 -25 -181 -45q-32 -12 -57 -25.5t-50.5 -31.5t-55.5 -42l-74 -57q-7 6 -7 13q0 10 8.5 31t20.5 42.5t25 39.5t22 23q-58 44 -65 50q-30 32 -30 73q0 82 110 195q74 75 218 75q55 0 93 -20l-48 -100q-4 22 -108 22q-33 0 -67 -10t-61 -27.5t-44 -40
t-17 -46.5q0 -35 53 -52l25.5 -5t57.5 -12z" />
    <glyph glyph-name="alefmaddaabovearabic" unicode="&#x622;" horiz-adv-x="550" arabic-form="isolated" 
d="M427 283l-132 -152v933l132 134v-915zM470 1484q0 -141 -194 -141q-46 0 -69 -15q-5 -4 -16 -17t-28 -36q1 13 2 35.5t6 54.5q5 39 47.5 58.5t119.5 19.5q29 0 47 2.5t32 10t26 21.5t27 38v-31z" />
    <glyph glyph-name="alefhamzaabovearabic" unicode="&#x623;" horiz-adv-x="550" arabic-form="isolated" 
d="M440 283l-129 -152v933l129 134v-915zM484 1461l-25 -82q-103 -33 -150 -66l-123 -102q-4 4 -4 11q0 54 38 94q-73 48 -73 92q0 41 19 78t50.5 65t73 44.5t85.5 16.5q26 0 47 -6l-29 -82q-3 14 -60 14q-24 0 -48 -8t-43 -21.5t-30.5 -31.5t-11.5 -38q0 -13 20.5 -24
t54.5 -11q13 0 22 3z" />
    <glyph glyph-name="wawhamzaabovearabic" unicode="&#x624;" horiz-adv-x="738" arabic-form="isolated" 
d="M738 383q0 -223 -106 -389q-123 -192 -334 -192q-152 0 -241 71q-39 32 -73.5 85.5t-63.5 128.5q24 -49 141 -108q110 -56 173 -56q66 0 130 23t118 63t93.5 95t56.5 118q-6 -1 -12 -1.5t-12 -0.5q-52 0 -99 19t-83 52t-57 77t-21 93q0 78 71 185q77 113 150 113
q21 0 46 -18q123 -85 123 -358zM557 1047l-26 -78q-51 -16 -87 -32t-61 -32q-19 -11 -49.5 -37t-75.5 -68l-4 9q0 8 4 21.5t10 28t12.5 27t11.5 16.5q-72 50 -72 96q0 56 61 133q56 72 165 72q27 0 49 -8l-27 -82q-7 12 -61 12q-26 0 -50.5 -7.5t-43 -20.5t-29.5 -31
t-11 -38q0 -33 45 -33h54zM649 409q0 27 -9.5 55t-25.5 50t-38 36t-47 14q-14 0 -27.5 -8.5t-24.5 -22t-17.5 -29.5t-6.5 -31q0 -16 16.5 -31.5t41.5 -27t55 -18.5t57 -7q26 0 26 20z" />
    <glyph glyph-name="alefhamzabelowarabic" unicode="&#x625;" horiz-adv-x="550" arabic-form="isolated" 
d="M446 408l-130 -182v1102l130 156v-1076zM529 -179l-5 -76q-54 -19 -95 -38t-71 -38q-19 -11 -54.5 -38.5l-89.5 -71.5l-6 8q0 9 5.5 28.5t13 39.5t15.5 37t14 21q-89 48 -89 99q0 61 66 136q68 75 126 75q51 0 109 -43l-37 -59q-4 9 -56 9q-134 0 -134 -93q0 -50 95 -50
q41 0 98 20z" />
    <glyph glyph-name="alefarabic" unicode="&#x627;" horiz-adv-x="550" arabic-form="isolated" 
d="M438 408l-129 -182v1102l129 156v-1076z" />
    <glyph glyph-name="beharabic" unicode="&#x628;" horiz-adv-x="1203" arabic-form="isolated" 
d="M1193 426q0 -157 -60 -204q-23 -18 -80 -33.5t-149 -31.5q-89 -14 -171 -21.5t-159 -7.5q-548 0 -548 287q0 69 36 136q12 22 81 115q-37 -117 -37 -165q0 -140 193 -185q48 -11 123 -16.5t180 -5.5q59 0 128.5 4t151.5 12q226 22 226 66q0 50 -84 156l78 171
q91 -148 91 -277zM738 -224l-78 -133l-192 111l74 134z" />
    <glyph glyph-name="tehmarbutaarabic" unicode="&#x629;" horiz-adv-x="659" arabic-form="isolated" 
d="M570 449q0 -58 -17 -107t-48 -85t-73.5 -56t-93.5 -20q-103 0 -243 54q-75 30 -75 112q0 52 48 166q49 120 88 142q-26 38 -26 52q0 59 132 179q0 -50 20 -91.5t60 -73.5q2 -1 12.5 -9l26 -19.5l33 -24.5l33.5 -25l27.5 -21l15.5 -12q80 -63 80 -161zM455 394
q0 23 -111 116t-136 93q-11 0 -26 -22.5t-28.5 -52t-23 -58t-9.5 -40.5q0 -10 4 -18q73 -65 193 -65q137 0 137 47zM472 1040l-179 114l75 121l179 -107zM43 1142l73 126l177 -114l-73 -118z" />
    <glyph glyph-name="teharabic" unicode="&#x62a;" horiz-adv-x="1203" arabic-form="isolated" 
d="M1193 426q0 -157 -60 -204q-23 -18 -80 -33.5t-149 -31.5q-89 -14 -171 -21.5t-159 -7.5q-548 0 -548 287q0 69 36 136q12 22 81 115q-37 -117 -37 -165q0 -140 193 -185q48 -11 123 -16.5t180 -5.5q59 0 128.5 4t151.5 12q226 22 226 66q0 50 -84 156l78 171
q91 -148 91 -277zM343 766l81 125l185 -119l-73 -119zM792 655l-183 117l74 121l184 -110z" />
    <glyph glyph-name="theharabic" unicode="&#x62b;" horiz-adv-x="1204" arabic-form="isolated" 
d="M1193 426q0 -157 -60 -204q-23 -18 -80 -33.5t-149 -31.5q-89 -14 -171 -21.5t-159 -7.5q-548 0 -548 287q0 69 36 136q12 22 81 115q-37 -117 -37 -165q0 -140 193 -185q48 -11 123 -16.5t180 -5.5q59 0 128.5 4t151.5 12q226 22 226 66q0 50 -84 156l78 171
q91 -148 91 -277zM643 1047l-78 -143l-193 117l74 136zM333 766l74 134l186 -111l-73 -136zM784 676l-191 113l67 126l191 -113z" />
    <glyph glyph-name="jeemarabic" unicode="&#x62c;" horiz-adv-x="1098" arabic-form="isolated" 
d="M1053 -209q-75 -95 -258 -174q-90 -40 -165 -60.5t-138 -19.5q-200 0 -325 185q-108 160 -108 374q0 236 182 475l20.5 29l29.5 42q-33 13 -73 13q-18 0 -45 -5.5t-55 -15t-54 -21.5q-23 -10 -37 -21q22 24 52 88q21 45 41.5 73t44.5 44t52.5 22t66.5 6q22 0 66.5 -7.5
l93.5 -16l93.5 -16t66.5 -7.5q137 0 275 50l-41 -186q-9 1 -22.5 1.5t-31.5 0.5q-146 0 -264 -39.5t-201.5 -113t-128.5 -178.5t-45 -236q0 -355 464 -355q216 0 444 69zM665 98l-75 -142l-185 107l74 141z" />
    <glyph glyph-name="haharabic" unicode="&#x62d;" horiz-adv-x="1098" arabic-form="isolated" 
d="M1053 -209q-75 -95 -258 -174q-90 -40 -165 -60.5t-138 -19.5q-200 0 -325 185q-108 160 -108 374q0 236 182 475l20.5 29l29.5 42q-33 13 -73 13q-18 0 -45 -5.5t-55 -15t-54 -21.5q-23 -10 -37 -21q22 24 52 88q21 45 41.5 73t44.5 44t52.5 22t66.5 6q22 0 66.5 -7.5
l93.5 -16l93.5 -16t66.5 -7.5q137 0 275 50l-41 -186q-9 1 -22.5 1.5t-31.5 0.5q-146 0 -264 -39.5t-201.5 -113t-128.5 -178.5t-45 -236q0 -355 464 -355q216 0 444 69z" />
    <glyph glyph-name="khaharabic" unicode="&#x62e;" horiz-adv-x="1098" arabic-form="isolated" 
d="M1053 -209q-75 -95 -258 -174q-90 -40 -165 -60.5t-138 -19.5q-200 0 -325 185q-108 160 -108 374q0 236 182 475l20.5 29l29.5 42q-33 13 -73 13q-18 0 -45 -5.5t-55 -15t-54 -21.5q-23 -10 -37 -21q22 24 52 88q21 45 41.5 73t44.5 44t52.5 22t66.5 6q22 0 66.5 -7.5
l93.5 -16l93.5 -16t66.5 -7.5q137 0 275 50l-41 -186q-9 1 -22.5 1.5t-31.5 0.5q-146 0 -264 -39.5t-201.5 -113t-128.5 -178.5t-45 -236q0 -355 464 -355q216 0 444 69zM659 1209l-85 -136l-188 122l88 128z" />
    <glyph glyph-name="dalarabic" unicode="&#x62f;" horiz-adv-x="767" arabic-form="isolated" 
d="M756 331q0 -37 -5.5 -60.5t-26 -39.5t-61.5 -26.5t-113 -21.5q-121 -18 -218 -18q-101 0 -136 21q-46 28 -46 124q0 15 5 46.5t12.5 62.5t17.5 54.5t19 23.5q2 0 3 -1v-63q0 -64 13 -73q41 -23 141 -23q35 0 76 3t89 10q130 18 130 49q0 43 -58 205q-59 169 -83 176
l95 197q16 -4 79 -249q67 -262 67 -397z" />
    <glyph glyph-name="thalarabic" unicode="&#x630;" horiz-adv-x="767" arabic-form="isolated" 
d="M756 331q0 -37 -5.5 -60.5t-26 -39.5t-61.5 -26.5t-113 -21.5q-121 -18 -218 -18q-101 0 -136 21q-46 28 -46 124q0 15 5 46.5t12.5 62.5t17.5 54.5t19 23.5q2 0 3 -1v-63q0 -64 13 -73q41 -23 141 -23q35 0 76 3t89 10q130 18 130 49q0 43 -58 205q-59 169 -83 176
l95 197q16 -4 79 -249q67 -262 67 -397zM587 1268l-80 -143l-187 108l81 141z" />
    <glyph glyph-name="reharabic" unicode="&#x631;" horiz-adv-x="767" arabic-form="isolated" 
d="M767 269q0 -217 -172 -370q-148 -132 -286 -132q-174 0 -345 235q13 -16 43 -30q33 -15 83 -29q43 -12 80 -17.5t68 -5.5q275 0 432 297q11 22 11 43q0 116 -172 236l74 161q41 -26 75 -67.5t58 -93.5t37.5 -110t13.5 -117zM-36 2q-2 2 -3 4q2 -2 3 -4z" />
    <glyph glyph-name="zainarabic" unicode="&#x632;" horiz-adv-x="767" arabic-form="isolated" 
d="M767 269q0 -217 -172 -370q-148 -132 -286 -132q-174 0 -345 235q13 -16 43 -30q33 -15 83 -29q43 -12 80 -17.5t68 -5.5q275 0 432 297q11 22 11 43q0 116 -172 236l74 161q41 -26 75 -67.5t58 -93.5t37.5 -110t13.5 -117zM504 1082l-88 -137l-182 121l84 129zM-36 2
q-2 2 -3 4q2 -2 3 -4z" />
    <glyph glyph-name="seenarabic" unicode="&#x633;" horiz-adv-x="1716" arabic-form="isolated" 
d="M1680 430q0 -198 -23 -201q-23 -2 -57 -4t-82 -2q-94 0 -168.5 12.5t-128.5 37.5q-9 3 -9 5v1q-47 -39 -106 -47q-22 -3 -118 -3q0 -188 -186 -317q-164 -113 -362 -117l-38 -2q-7 0 -14 -0.5t-14 -0.5q-360 0 -360 266q0 100 63 242q59 131 134 217q-19 -26 -37 -67
t-32 -86.5t-22.5 -89.5t-8.5 -76q0 -247 320 -247q90 0 187.5 28.5t188.5 82.5q26 15 41 26t20 22q13 29 13 73q0 39 -9.5 84t-25.5 88t-38 79.5t-46 57.5l132 156q63 -122 89 -238q8 -32 104 -32q80 0 101 24q19 20 19 105q0 33 -8 46l118 118q1 -17 1.5 -44.5t0.5 -64.5
q0 -86 -25 -146q-3 -4 -3 -8q0 -30 114 -30q45 0 74 2.5t46 8.5t23.5 17t6.5 27q0 92 -48 129l141 125q32 -26 32 -257z" />
    <glyph glyph-name="sheenarabic" unicode="&#x634;" horiz-adv-x="1696" arabic-form="isolated" 
d="M1680 430q0 -198 -23 -201q-23 -2 -57 -4t-82 -2q-94 0 -168.5 12.5t-128.5 37.5q-9 3 -9 5v1q-47 -39 -106 -47q-22 -3 -118 -3q0 -188 -186 -317q-164 -113 -362 -117l-38 -2q-7 0 -14 -0.5t-14 -0.5q-360 0 -360 266q0 100 63 242q59 131 134 217q-19 -26 -37 -67
t-32 -86.5t-22.5 -89.5t-8.5 -76q0 -247 320 -247q90 0 187.5 28.5t188.5 82.5q26 15 41 26t20 22q13 29 13 73q0 39 -9.5 84t-25.5 88t-38 79.5t-46 57.5l132 156q63 -122 89 -238q8 -32 104 -32q80 0 101 24q19 20 19 105q0 33 -8 46l118 118q1 -17 1.5 -44.5t0.5 -64.5
q0 -86 -25 -146q-3 -4 -3 -8q0 -30 114 -30q45 0 74 2.5t46 8.5t23.5 17t6.5 27q0 92 -48 129l141 125q32 -26 32 -257zM1038 952l93 121l165 -118l-93 -123zM1364 1211l-91 -118l-158 114l88 121zM1458 841l-162 114l89 118l159 -107z" />
    <glyph glyph-name="sadarabic" unicode="&#x635;" horiz-adv-x="2086" arabic-form="isolated" 
d="M2068 393q0 -73 -36 -139q-16 -28 -195 -28h-849q0 -190 -186 -316q-162 -111 -362 -115l-38 -2q-7 0 -14 -0.5t-14 -0.5q-360 0 -360 266q0 100 63 242q59 131 134 217q-19 -26 -37 -67t-32 -86.5t-22.5 -89.5t-8.5 -76q0 -247 320 -247q90 0 187.5 28.5t188.5 82.5
q26 15 41 26t20 22q13 29 13 73q0 39 -9.5 84t-25.5 88t-38 79.5t-46 57.5l132 156q30 -30 61 -123q29 -85 29 -125q0 -3 -0.5 -6t-0.5 -5h91q36 0 148 89q165 132 218 167q135 90 223 90q35 0 74 -17q331 -145 331 -325zM1951 399q0 40 -135 110q-127 66 -181 66
q-55 0 -220 -80q-169 -82 -169 -119q11 -5 108.5 -9.5t285.5 -4.5q311 0 311 37z" />
    <glyph glyph-name="dadarabic" unicode="&#x636;" horiz-adv-x="2086" arabic-form="isolated" 
d="M2068 393q0 -73 -36 -139q-16 -28 -195 -28h-849q0 -190 -186 -316q-162 -111 -362 -115l-38 -2q-7 0 -14 -0.5t-14 -0.5q-360 0 -360 266q0 100 63 242q59 131 134 217q-19 -26 -37 -67t-32 -86.5t-22.5 -89.5t-8.5 -76q0 -247 320 -247q90 0 187.5 28.5t188.5 82.5
q26 15 41 26t20 22q13 29 13 73q0 39 -9.5 84t-25.5 88t-38 79.5t-46 57.5l132 156q30 -30 61 -123q29 -85 29 -125q0 -3 -0.5 -6t-0.5 -5h91q36 0 148 89q165 132 218 167q135 90 223 90q35 0 74 -17q331 -145 331 -325zM1951 399q0 40 -135 110q-127 66 -181 66
q-55 0 -220 -80q-169 -82 -169 -119q11 -5 108.5 -9.5t285.5 -4.5q311 0 311 37zM1718 1131l-78 -144l-199 118l86 145z" />
    <glyph glyph-name="taharabic" unicode="&#x637;" horiz-adv-x="1122" arabic-form="isolated" 
d="M1122 280q0 -54 -67 -54h-990l-56 163q23 -5 81 -5q172 0 246 53v722l-39 180l116 145l14 -175l80 -84l-72 -141v-585q10 24 130 115q148 112 256 112q36 0 69 -15q151 -64 184 -103q48 -55 48 -198v-130zM1035 410q0 68 -117 114q-93 37 -173 37q-46 0 -162 -69
q-115 -69 -115 -104q0 -17 229 -17q338 0 338 39z" />
    <glyph glyph-name="zaharabic" unicode="&#x638;" horiz-adv-x="1122" arabic-form="isolated" 
d="M1122 280q0 -54 -67 -54h-990l-56 163q23 -5 81 -5q172 0 246 53v722l-39 180l116 145l14 -175l80 -84l-72 -141v-585q10 24 130 115q148 112 256 112q36 0 69 -15q151 -64 184 -103q48 -55 48 -198v-130zM1035 410q0 68 -117 114q-93 37 -173 37q-46 0 -162 -69
q-115 -69 -115 -104q0 -17 229 -17q338 0 338 39zM951 1093l-82 -144l-199 115l75 140z" />
    <glyph glyph-name="ainarabic" unicode="&#x639;" horiz-adv-x="1098" arabic-form="isolated" 
d="M1012 -259q-57 -113 -253 -182q-166 -59 -319 -59q-94 0 -171 29.5t-132 82.5t-85 126.5t-30 162.5q0 104 44.5 227t123.5 251q23 36 43 57.5t36 30.5q-148 49 -148 190q0 97 72 208q80 123 171 123q26 0 59 -16t62 -41t49 -54.5t20 -56.5q-1 -4 -4 -4q-55 27 -137 27
q-32 0 -65 -9t-60 -24.5t-44 -36.5t-17 -44t16.5 -45t41 -39t54 -27t54.5 -10q59 0 159 48q9 5 46 24l103 53l-31 -175h-6q-33 0 -153 -66q-400 -219 -400 -543q0 -55 12 -109q39 -172 408 -172q45 0 108.5 4.5t147.5 14.5q201 24 225 54z" />
    <glyph glyph-name="ghainarabic" unicode="&#x63a;" horiz-adv-x="1098" arabic-form="isolated" 
d="M1012 -259q-57 -113 -253 -182q-166 -59 -319 -59q-94 0 -171 29.5t-132 82.5t-85 126.5t-30 162.5q0 104 44.5 227t123.5 251q23 36 43 57.5t36 30.5q-148 49 -148 190q0 97 72 208q80 123 171 123q26 0 59 -16t62 -41t49 -54.5t20 -56.5q-1 -4 -4 -4q-55 27 -137 27
q-32 0 -65 -9t-60 -24.5t-44 -36.5t-17 -44t16.5 -45t41 -39t54 -27t54.5 -10q59 0 159 48q9 5 46 24l103 53l-31 -175h-6q-33 0 -153 -66q-400 -219 -400 -543q0 -55 12 -109q39 -172 408 -172q45 0 108.5 4.5t147.5 14.5q201 24 225 54zM536 1283l-81 -136l-189 117
l83 138z" />
    <glyph glyph-name="feharabic" unicode="&#x641;" horiz-adv-x="1473" arabic-form="isolated" 
d="M1458 449q0 -217 -53 -223q-180 -20 -372 -30.5t-400 -10.5q-482 0 -553 111q-66 105 -66 205q0 66 26 123q8 17 65 109q-18 -142 -18 -160q0 -93 74 -152q83 -65 528 -65q103 0 311 9q261 11 273 24l-161 74q-88 55 -88 140q0 84 84 208q89 132 168 132q99 0 149 -206
q17 -70 25 -141.5t8 -146.5zM1383 517q0 53 -51 153q-56 110 -103 110q-11 0 -30 -14.5t-38 -35t-34 -42t-19 -35.5l272 -147q3 3 3 11zM1335 1222l-77 -136l-198 117l82 136z" />
    <glyph glyph-name="qafarabic" unicode="&#x642;" horiz-adv-x="1031" arabic-form="isolated" 
d="M1017 225q0 -156 -64 -235q-93 -114 -253 -184q-78 -35 -154.5 -53t-151.5 -17q-87 0 -156.5 25t-118 72.5t-75 116t-26.5 155.5q0 85 33 194q38 124 85 172q-56 -107 -56 -290q0 -269 244 -269q192 0 351 44q240 65 240 209q0 24 -10 61q-29 -4 -54 -5.5t-45 -1.5
q-241 0 -241 182q0 93 61 219q69 143 148 143q113 0 186 -220q57 -172 57 -318zM864 952l-173 115l74 131l182 -110zM438 1051l77 133l176 -117l-69 -122zM890 397q0 40 -61 111q-61 72 -99 72q-10 0 -20.5 -10.5t-19 -27t-13.5 -36t-5 -37.5q0 -85 131 -85q57 0 87 10v3z
" />
    <glyph glyph-name="kafarabic" unicode="&#x643;" horiz-adv-x="1024" arabic-form="isolated" 
d="M821 423q-1 -3 -1 -6t-1 -5v745l-22.5 86.5l-24.5 95.5l143 145l14 -175l78 -84l-65 -141v-674q0 -55 -1 -89t-3 -47q-9 -53 -201 -89q-74 -14 -135.5 -21t-112.5 -7q-517 0 -517 262q0 93 65 208q51 92 65 92l3 -1v-7q0 -12 -3.5 -36.5t-8 -52t-8 -53t-3.5 -37.5
q0 -58 5 -76q33 -125 398 -125q70 0 164 12q57 8 95.5 18t58.5 21q11 6 16 30q1 -4 1 -10zM598 809q0 -201 -247 -201q-28 0 -42 6q200 80 200 109q0 8 -14.5 10.5t-34 3.5t-39.5 2.5t-30 8.5q-19 13 -19 52q0 23 14 53.5t42 73.5q59 90 96 90h2l-45.5 -87t-30.5 -63
q17 -17 67 -24q70 -9 76 -12q5 -7 5 -22z" />
    <glyph glyph-name="lamarabic" unicode="&#x644;" horiz-adv-x="893" arabic-form="isolated" 
d="M886 1225l-67 -141v-855q0 -119 -166 -236q-150 -105 -320 -105q-81 0 -148 27.5t-115 76.5t-74 117t-26 149q0 119 45 234q21 54 36.5 77t25.5 23q0 -16 -4 -48t-9.5 -67.5t-9.5 -67.5t-4 -49q0 -168 102 -245q113 -84 220 -84q44 0 91.5 18t90 47t77 67t52.5 78v918
l-34 180l143 145l14 -175z" />
    <glyph glyph-name="meemarabic" unicode="&#x645;" horiz-adv-x="765" arabic-form="isolated" 
d="M756 360l-44 -137q-54 5 -118 7.5t-142 2.5q-323 0 -324 -55l8 -31q3 -10 11 -43.5l21 -91.5q27 -119 41.5 -214.5t13.5 -169.5q0 -92 -67 -208q-14 153 -36 287.5t-52 252.5q-20 81 -31 137t-11 88q0 113 69 152q39 22 175 41q120 18 172 18q19 0 28 -3l-143 160
l-186 -97l2 61q1 29 93 119t123 90q43 0 140 -123q121 -154 136 -166q20 -16 50 -35t71 -42z" />
    <glyph glyph-name="noonarabic" unicode="&#x646;" horiz-adv-x="1003" arabic-form="isolated" 
d="M988 294v-65q0 -192 -185 -318q-163 -112 -363 -116l-38 -2q-7 0 -14 -0.5t-14 -0.5q-360 0 -360 266q0 100 63 242q59 131 134 217q-19 -26 -37 -66.5t-32 -85.5t-22.5 -89.5t-8.5 -77.5q0 -247 320 -247q90 0 187.5 28.5t188.5 82.5q26 15 41 26t20 22q13 29 13 73
q0 39 -9.5 84t-25.5 88t-38 79.5t-46 57.5l132 156q94 -124 94 -354zM628 995l-82 -141l-195 123l84 135z" />
    <glyph glyph-name="heharabic" unicode="&#x647;" horiz-adv-x="659" arabic-form="isolated" 
d="M570 449q0 -58 -17 -107t-48 -85t-73.5 -56t-93.5 -20q-103 0 -243 54q-75 30 -75 112q0 52 48 166q49 120 88 142q-26 38 -26 52q0 59 132 179q0 -50 20 -91.5t60 -73.5q2 -1 12.5 -9l26 -19.5l33 -24.5l33.5 -25l27.5 -21l15.5 -12q80 -63 80 -161zM455 394
q0 23 -111 116t-136 93q-11 0 -26 -22.5t-28.5 -52t-23 -58t-9.5 -40.5q0 -10 4 -18q73 -65 193 -65q137 0 137 47z" />
    <glyph glyph-name="wawarabic" unicode="&#x648;" horiz-adv-x="738" arabic-form="isolated" 
d="M738 383q0 -223 -106 -389q-123 -192 -334 -192q-152 0 -241 71q-39 32 -73.5 85.5t-63.5 128.5q24 -49 141 -108q110 -56 173 -56q66 0 130 23t118 63t93.5 95t56.5 118q-6 -1 -12 -1.5t-12 -0.5q-52 0 -99 19t-83 52t-57 77t-21 93q0 78 71 185q77 113 150 113
q21 0 46 -18q123 -85 123 -358zM649 409q0 27 -9.5 55t-25.5 50t-38 36t-47 14q-14 0 -27.5 -8.5t-24.5 -22t-17.5 -29.5t-6.5 -31q0 -16 16.5 -31.5t41.5 -27t55 -18.5t57 -7q26 0 26 20z" />
    <glyph glyph-name="alefmaksuraarabic" unicode="&#x649;" horiz-adv-x="1204" arabic-form="isolated" 
d="M1192 694q0 -63 -68 -166q-48 55 -82 55q-72 0 -226 -82q-163 -85 -163 -143q0 -22 123 -45q98 -17 154.5 -28t72.5 -16q63 -17 91 -37t28 -47l-9 -145q-6 -106 -316 -213q-268 -93 -409 -93q-80 0 -146 23.5t-112.5 68t-72 109t-25.5 146.5q0 134 85 316q92 196 197 253
q-58 -58 -120 -234q-29 -84 -44.5 -148t-15.5 -110q0 -241 306 -241q114 0 301 51q110 31 171.5 64.5t75.5 68.5q-237 57 -303 57q-128 0 -128 100q0 155 194 329q191 171 350 171q91 0 91 -64z" />
    <glyph glyph-name="yeharabic" unicode="&#x64a;" horiz-adv-x="1210" arabic-form="isolated" 
d="M1192 694q0 -63 -68 -166q-48 55 -82 55q-72 0 -226 -82q-163 -85 -163 -143q0 -22 123 -45q98 -17 154.5 -28t72.5 -16q63 -17 91 -37t28 -47l-9 -145q-6 -106 -316 -213q-268 -93 -409 -93q-80 0 -146 23.5t-112.5 68t-72 109t-25.5 146.5q0 134 85 316q92 196 197 253
q-58 -58 -120 -234q-29 -84 -44.5 -148t-15.5 -110q0 -241 306 -241q114 0 301 51q110 31 171.5 64.5t75.5 68.5q-237 57 -303 57q-128 0 -128 100q0 155 194 329q191 171 350 171q91 0 91 -64zM171 -539l83 122l178 -117l-78 -126zM604 -648l-172 114l75 119l171 -106z" />
    <glyph glyph-name="peharabic" unicode="&#x67e;" horiz-adv-x="1204" arabic-form="isolated" 
d="M1193 426q0 -157 -60 -204q-23 -18 -80 -33.5t-149 -31.5q-89 -14 -171 -21.5t-159 -7.5q-548 0 -548 287q0 69 36 136q12 22 81 115q-37 -117 -37 -165q0 -140 193 -185q48 -11 123 -16.5t180 -5.5q59 0 128.5 4t151.5 12q226 22 226 66q0 50 -84 156l78 171
q91 -148 91 -277zM343 -167l92 120l166 -119l-92 -123zM791 -412l-91 -118l-160 113l88 123zM762 -281l-161 115l89 119l157 -109z" />
    <glyph glyph-name="tteharabic" unicode="&#x679;" horiz-adv-x="1203" arabic-form="isolated" 
d="M1193 426q0 -157 -60 -204q-23 -18 -80 -33.5t-149 -31.5q-89 -14 -171 -21.5t-159 -7.5q-548 0 -548 287q0 69 36 136q12 22 81 115q-37 -117 -37 -165q0 -140 193 -185q48 -11 123 -16.5t180 -5.5q59 0 128.5 4t151.5 12q226 22 226 66q0 50 -84 156l78 171
q91 -148 91 -277zM811 697q0 -12 -8 -15.5t-17 -3.5h-370l-22 60q23 -5 42 -5q46 0 80 23v270l-14 68l44 56l5 -67l30 -32l-26 -52v-220q80 83 145 83q16 0 31.5 -5.5t28.5 -12t21.5 -13.5t10.5 -10q19 -20 19 -70v-54zM779 745q0 11 -10.5 21t-26.5 18t-35.5 13t-38.5 5
q-9 0 -24 -7t-31 -17t-29 -21t-18 -19q40 -4 70.5 -5.5t50.5 -1.5q92 0 92 14v0z" />
    <glyph glyph-name="tcheharabic" unicode="&#x686;" horiz-adv-x="1098" arabic-form="isolated" 
d="M1053 -209q-75 -95 -258 -174q-90 -40 -165 -60.5t-138 -19.5q-200 0 -325 185q-108 160 -108 374q0 236 182 475l20.5 29l29.5 42q-33 13 -73 13q-18 0 -45 -5.5t-55 -15t-54 -21.5q-23 -10 -37 -21q22 24 52 88q21 45 41.5 73t44.5 44t52.5 22t66.5 6q22 0 66.5 -7.5
l93.5 -16l93.5 -16t66.5 -7.5q137 0 275 50l-41 -186q-9 1 -22.5 1.5t-31.5 0.5q-146 0 -264 -39.5t-201.5 -113t-128.5 -178.5t-45 -236q0 -355 464 -355q216 0 444 69zM292 265l94 119l165 -119l-92 -121zM740 19l-91 -118l-161 114l91 123zM712 150l-161 115l90 119
l156 -108z" />
    <glyph glyph-name="hehaltonearabic" unicode="&#x6c1;" horiz-adv-x="659" arabic-form="isolated" 
d="M570 449q0 -58 -17 -107t-48 -85t-73.5 -56t-93.5 -20q-103 0 -243 54q-75 30 -75 112q0 52 48 166q49 120 88 142q-26 38 -26 52q0 59 132 179q0 -50 20 -91.5t60 -73.5q2 -1 12.5 -9l26 -19.5l33 -24.5l33.5 -25l27.5 -21l15.5 -12q80 -63 80 -161zM455 394
q0 23 -111 116t-136 93q-11 0 -26 -22.5t-28.5 -52t-23 -58t-9.5 -40.5q0 -10 4 -18q73 -65 193 -65q137 0 137 47z" />
    <glyph glyph-name="veharabic" unicode="&#x6a4;" horiz-adv-x="1473" arabic-form="isolated" 
d="M1458 449q0 -217 -53 -223q-180 -20 -372 -30.5t-400 -10.5q-482 0 -553 111q-66 105 -66 205q0 66 26 123q8 17 65 109q-18 -142 -18 -160q0 -93 74 -152q83 -65 528 -65q103 0 311 9q261 11 273 24l-161 74q-88 55 -88 140q0 84 84 208q89 132 168 132q99 0 149 -206
q17 -70 25 -141.5t8 -146.5zM1383 517q0 53 -51 153q-56 110 -103 110q-11 0 -30 -14.5t-38 -35t-34 -42t-19 -35.5l272 -147q3 3 3 11zM964 1147l93 121l166 -119l-92 -124zM1291 1404l-91 -118l-158 114l89 121zM1385 1034l-162 115l89 119l159 -109z" />
    <glyph glyph-name="gafarabic" unicode="&#x6af;" horiz-adv-x="1323" arabic-form="isolated" 
d="M1330 1484l-86 -203l-591 -242l50.5 -32.5l47.5 -33.5l192 -172.5l196 -190.5q149 -131 171 -250q0 -23 -41 -120q-5 -14 -141 -14h-953q-52 0 -85 6t-51.5 21.5t-25 41.5t-6.5 65q0 97 70 215q62 101 77 101h2l-6 -19q-4 -13 -9 -32t-9.5 -40.5t-7.5 -43t-3 -38.5
q0 -116 75 -116q67 0 166.5 0.5t235.5 0.5l400 1q134 0 141 15v1q0 29 -202 224q-202 196 -232 196q-4 -7 -15 -57l-43.5 39t-56.5 55t-49 62t-21 60q0 66 61 157q34 52 749 343zM1170 1488l-639 -285l-22 45l639 286z" />
    <glyph glyph-name="ddalarabic" unicode="&#x688;" horiz-adv-x="736" arabic-form="isolated" 
d="M734 331q0 -36 -6 -60t-27 -40t-62 -27t-111 -21q-62 -8 -116.5 -13t-102.5 -5q-102 0 -135 21q-46 28 -46 124q0 21 5 53t12.5 62t17 51t18.5 21q2 0 3 -1v-63q0 -66 13 -73q40 -23 141 -23q47 0 98.5 5t95.5 13t72.5 19.5t28.5 24.5q0 44 -58 205q-30 85 -49.5 128.5
t-33.5 47.5l95 197q17 -4 78 -249q69 -268 69 -397zM631 1170q0 -12 -8 -15.5t-17 -3.5h-370l-22 60q23 -5 42 -5q46 0 80 23v270l-14 68l44 56l5 -67l30 -32l-26 -52v-220q80 83 145 83q16 0 31.5 -5.5t28.5 -12t21.5 -13.5t10.5 -10q19 -20 19 -70v-54zM599 1218
q0 11 -10.5 21t-26.5 18t-35.5 13t-38.5 5q-9 0 -24 -7t-31 -17t-29 -21t-18 -19q40 -4 70.5 -5.5t50.5 -1.5q92 0 92 14z" />
    <glyph glyph-name="rreharabic" unicode="&#x691;" horiz-adv-x="834" arabic-form="isolated" 
d="M767 269q0 -217 -172 -370q-148 -132 -286 -132q-174 0 -345 235q13 -16 43 -30q33 -15 83 -29q43 -12 80 -17.5t68 -5.5q275 0 432 297q11 22 11 43q0 116 -172 236l74 161q41 -26 75 -67.5t58 -93.5t37.5 -110t13.5 -117zM631 880q0 -9 -6.5 -16t-18.5 -7h-370l-22 62
q85 0 122 18v272l-14 68l44 54l5 -65l30 -33l-26 -52v-219q80 83 145 83q15 0 30.5 -5.5t28.5 -12t22 -13.5t11 -10q19 -20 19 -71v-53zM599 927q0 11 -10 21t-26 18t-36.5 13t-40.5 5q-9 0 -24 -7t-31 -17t-28.5 -21t-16.5 -20l104 -4q109 0 109 12zM-36 2q-2 2 -3 4
q2 -2 3 -4z" />
    <glyph glyph-name="jeharabic" unicode="&#x698;" horiz-adv-x="767" arabic-form="isolated" 
d="M767 269q0 -217 -172 -370q-148 -132 -286 -132q-174 0 -345 235q13 -16 43 -30q33 -15 83 -29q43 -12 80 -17.5t68 -5.5q275 0 432 297q11 22 11 43q0 116 -172 236l74 161q41 -26 75 -67.5t58 -93.5t37.5 -110t13.5 -117zM182 952l91 121l165 -118l-93 -123zM507 1211
l-91 -118l-160 114l89 121zM599 841l-161 114l88 118l159 -107zM-36 2q-2 2 -3 4q2 -2 3 -4z" />
    <glyph glyph-name="yehbarreearabic" unicode="&#x6d2;" horiz-adv-x="1098" arabic-form="isolated" 
d="M1200 -15l-69 -164h-854q-10 82 -14.5 129t-4.5 60q0 103 82 215q82 111 181 143q58 19 230 19q62 0 126 58t95 58q20 0 40 -10t35.5 -26.5t25.5 -37t10 -40.5v-163q-66 123 -139 123q-31 0 -76 -39q-44 -40 -84 -41q-94 -3 -144.5 -6.5t-59.5 -5.5q-73 -16 -171 -113
q-82 -82 -82 -136q0 -26 149 -26q74 0 117.5 1.5t41.5 1.5h565z" />
    <glyph glyph-name="hahmedialarabic" unicode="&#x62d;" horiz-adv-x="1155" arabic-form="medial" 
d="M1294 226h-1308v163h806q0 11 -18 32t-46.5 47t-64 52t-69.5 44q-97 52 -183 52q-65 0 -221 -63q64 118 95 152q61 67 161 67q149 0 351 -178q35 -30 75.5 -61t89.5 -62q129 -82 182 -82h150v-163z" />
    <glyph glyph-name="yehhamzaabovearabic" unicode="&#x626;" horiz-adv-x="1210" arabic-form="isolated" 
d="M1192 694q0 -63 -68 -166q-48 55 -82 55q-72 0 -226 -82q-163 -85 -163 -143q0 -22 123 -45q98 -17 154.5 -28t72.5 -16q63 -17 91 -37t28 -47l-9 -145q-6 -106 -316 -213q-268 -93 -409 -93q-80 0 -146 23.5t-112.5 68t-72 109t-25.5 146.5q0 134 85 316q92 196 197 253
q-58 -58 -120 -234q-29 -84 -44.5 -148t-15.5 -110q0 -241 306 -241q114 0 301 51q110 31 171.5 64.5t75.5 68.5q-237 57 -303 57q-128 0 -128 100q0 155 194 329q191 171 350 171q91 0 91 -64zM270 1119l-25 -80q-50 -16 -87 -32t-62 -32q-39 -25 -124 -104l-4 9
q0 8 4 21.5t9.5 28t12.5 27t13 16.5q-72 48 -72 95q0 56 61 135q54 69 162 69q26 0 50 -8l-26 -80q-8 11 -61 11q-25 0 -49.5 -7.5t-43.5 -21t-30.5 -31t-11.5 -38.5q0 -31 46 -31h55l87.5 25.5z" />
    <glyph glyph-name="unicodefe70" unicode="&#xfe70;" horiz-adv-x="0" arabic-form="isolated" 
d="M416 1751l-368 -217v85l368 223v-91zM416 1965l-366 -221v83l366 222v-84z" />
    <glyph glyph-name="unicodefe71" unicode="&#xfe71;" horiz-adv-x="462" arabic-form="medial" 
d="M462 226h-516v163h516v-163zM416 1751l-368 -217v85l368 223v-91zM416 1965l-366 -221v83l366 222v-84z" />
    <glyph glyph-name="unicodefe72" unicode="&#xfe72;" horiz-adv-x="0" arabic-form="isolated" 
d="M267 1751q-70 48 -70 110q0 24 17 54.5t41.5 57.5t53 45.5t52.5 18.5q58 -34 58 -105q0 -57 -40 -138l30 -7v-99q-27 8 -71 25q-102 -111 -295 -179l-39 67q2 -1 8 -1q16 0 34.5 8.5t34 22t25.5 30t10 31.5q0 27 -18 55q-59 0 -91 -45l-10 51q64 55 116 55q20 0 20 -40
q0 -8 -1.5 -24t-1.5 -25q0 -45 30 -45q12 0 106 77h1zM359 1899q0 36 -34 36q-48 0 -48 -52q0 -50 45 -70q37 50 37 86z" />
    <glyph glyph-name="unicodefe74" unicode="&#xfe74;" horiz-adv-x="0" arabic-form="isolated" 
d="M91 -641l-371 -218v85l371 219v-86zM91 -428l-371 -225v84l371 225v-84z" />
    <glyph glyph-name="unicodefe76" unicode="&#xfe76;" horiz-adv-x="0" arabic-form="isolated" 
d="M416 1775l-334 -182v91l334 183v-92z" />
    <glyph glyph-name="unicodefe78" unicode="&#xfe78;" horiz-adv-x="0" arabic-form="isolated" 
d="M416 1765l-28 -66q-17 4 -41 10.5t-56 17.5q-48 -52 -107.5 -100t-133.5 -93l-36 70q1 -1 5 -1q18 0 106 67q84 65 105 89q-102 53 -102 119q0 25 18.5 54t45.5 53.5t58 41t55 16.5q51 0 69.5 -20t18.5 -72q0 -59 -66 -161q15 -5 37.5 -11.5t51.5 -13.5zM303 1929
q0 32 -30 32q-46 0 -46 -53q0 -39 46 -70q30 56 30 91z" />
    <glyph glyph-name="unicodefe7a" unicode="&#xfe7a;" horiz-adv-x="0" arabic-form="isolated" 
d="M281 -612l-369 -222v98l369 224v-100z" />
    <glyph glyph-name="unicodefe7c" unicode="&#xfe7c;" horiz-adv-x="0" arabic-form="isolated" 
d="M418 1799q0 -34 -7.5 -66.5t-20 -58t-29 -40.5t-34.5 -15q-5 0 -16.5 5t-24 11l-23 11t-14.5 5q-1 0 -45 -60q-42 -59 -91 -59q-85 0 -85 171q0 8 0.5 15t1.5 13l57 31q-6 -4 -6 -23q0 -114 47 -114q69 0 69 154q0 16 -7 26l55 30q-1 -3 -1 -8q0 -21 6.5 -42.5t17 -39
t23.5 -28.5t27 -11q41 0 41 88q0 79 -16 83l64 36q11 -13 11 -114z" />
    <glyph glyph-name="unicodefe7e" unicode="&#xfe7e;" horiz-adv-x="0" arabic-form="isolated" 
d="M413 1729q0 -92 -49 -144.5t-137 -52.5q-38 0 -64.5 8.5t-43 28.5t-24 53t-7.5 81q0 45 12 85t34 70t52 47.5t66 17.5q75 0 118 -53t43 -141zM327 1733q0 94 -86 94q-18 0 -33 -11t-26 -27t-17.5 -35t-6.5 -36q0 -62 75 -62q30 0 48 4t28.5 13t14 23.5t3.5 36.5z" />
    <glyph glyph-name="unicodefe77" unicode="&#xfe77;" horiz-adv-x="462" arabic-form="medial" 
d="M462 226h-516v163h516v-163zM416 1775l-334 -182v91l334 183v-92z" />
    <glyph glyph-name="unicodefe79" unicode="&#xfe79;" horiz-adv-x="462" arabic-form="medial" 
d="M462 226h-516v163h516v-163zM416 1765l-28 -66q-17 4 -41 10.5t-56 17.5q-48 -52 -107.5 -100t-133.5 -93l-36 70q1 -1 5 -1q18 0 106 67q84 65 105 89q-102 53 -102 119q0 25 18.5 54t45.5 53.5t58 41t55 16.5q51 0 69.5 -20t18.5 -72q0 -59 -66 -161q15 -5 37.5 -11.5
t51.5 -13.5zM303 1929q0 32 -30 32q-46 0 -46 -53q0 -39 46 -70q30 56 30 91z" />
    <glyph glyph-name="unicodefe7b" unicode="&#xfe7b;" horiz-adv-x="462" arabic-form="medial" 
d="M462 226h-516v163h516v-163zM281 -612l-369 -222v98l369 224v-100z" />
    </font>
</defs>
</svg>
